<?xml version="1.0" standalone="no"?>
<!DOCTYPE svg PUBLIC "-//W3C//DTD SVG 20010904//EN"
 "http://www.w3.org/TR/2001/REC-SVG-20010904/DTD/svg10.dtd">
<svg version="1.0" xmlns="http://www.w3.org/2000/svg"
 width="968.000000pt" height="968.000000pt" viewBox="0 0 968.000000 968.000000"
 preserveAspectRatio="xMidYMid meet">
<metadata>
Created by potrace 1.14, written by Peter Selinger 2001-2017
</metadata>
<g transform="translate(0.000000,968.000000) scale(0.100000,-0.100000)"
fill="#000000" stroke="none">
<path d="M2197 9674 c-1 -1 -29 -4 -62 -8 -59 -5 -84 -9 -155 -23 -19 -3 -39
-5 -45 -4 -7 2 -7 -1 0 -7 6 -6 33 -13 60 -16 100 -11 207 -34 260 -56 103
-43 154 -67 175 -81 14 -9 51 -33 83 -53 53 -35 202 -174 256 -240 78 -96 219
-344 271 -476 12 -30 28 -68 35 -85 22 -48 75 -200 75 -213 0 -7 4 -20 10 -30
5 -9 21 -57 35 -107 15 -49 32 -106 38 -125 6 -19 12 -39 13 -45 1 -5 9 -37
18 -70 9 -33 19 -68 21 -78 2 -10 7 -27 10 -37 3 -10 8 -27 10 -37 2 -10 14
-52 25 -93 11 -41 23 -82 25 -90 31 -115 48 -178 68 -245 14 -44 45 -150 71
-235 26 -85 54 -180 62 -210 9 -30 25 -84 36 -120 11 -36 22 -74 24 -85 2 -11
18 -65 34 -120 17 -55 33 -111 36 -125 9 -37 10 -44 17 -60 4 -8 36 -118 72
-245 64 -224 71 -246 79 -282 2 -10 11 -38 19 -63 8 -25 21 -70 30 -100 9 -30
26 -86 37 -125 12 -38 24 -83 27 -100 3 -16 9 -32 14 -33 5 -2 7 -8 4 -13 -3
-5 1 -29 9 -54 9 -25 57 -188 107 -363 49 -174 94 -330 99 -347 5 -16 19 -61
31 -100 11 -38 23 -80 25 -93 3 -13 11 -42 19 -65 11 -35 19 -63 40 -137 1 -3
7 -25 14 -50 6 -25 16 -56 21 -70 5 -14 12 -36 15 -50 2 -14 30 -110 61 -215
31 -104 62 -212 69 -240 7 -27 23 -81 34 -120 12 -38 28 -92 36 -120 7 -27 24
-84 36 -125 13 -41 24 -79 25 -85 1 -5 32 -113 68 -240 37 -126 76 -264 87
-305 28 -102 78 -207 125 -257 37 -41 45 -45 164 -74 69 -17 143 -35 165 -41
22 -5 49 -11 60 -14 11 -2 67 -15 125 -30 58 -14 119 -28 135 -31 17 -3 32 -9
33 -14 2 -5 7 -7 11 -4 5 2 22 0 40 -5 27 -7 31 -6 31 10 0 10 6 25 13 32 6 7
26 33 42 58 17 25 34 50 38 55 4 6 26 35 48 65 21 30 43 60 47 65 4 6 32 46
62 90 30 44 57 82 61 85 3 3 27 36 53 75 26 38 51 72 55 75 5 3 16 20 25 37 9
18 21 33 26 33 6 0 10 6 10 13 0 7 11 24 25 39 14 15 25 30 25 32 0 3 27 43
60 88 32 46 69 98 82 116 13 18 28 39 34 45 6 7 19 26 30 42 10 17 44 64 74
106 30 43 61 85 68 95 67 98 126 180 133 182 5 2 9 8 9 12 0 5 25 44 56 87 30
43 67 95 82 116 15 21 33 44 40 52 6 7 12 18 12 24 0 6 4 11 8 11 4 0 16 15
27 33 10 17 27 41 37 51 10 11 18 23 18 27 0 4 6 14 13 21 22 23 87 118 87
127 0 5 4 11 8 13 4 2 38 46 75 98 195 272 243 340 257 361 8 12 29 40 45 63
17 23 38 54 48 69 10 16 25 36 32 45 12 14 156 215 197 275 14 20 87 122 125
174 13 18 25 36 26 40 2 8 22 35 45 58 6 8 12 16 12 20 0 3 5 11 11 18 5 7 40
55 77 107 36 52 72 101 79 108 7 7 13 17 13 22 0 5 6 15 13 22 7 7 28 36 47
63 19 28 39 55 45 62 30 35 35 43 35 53 0 5 5 10 10 10 6 0 10 7 10 15 0 8 3
15 8 15 4 0 18 18 32 40 13 22 28 40 32 40 4 0 8 7 8 15 0 8 5 15 10 15 6 0
10 7 10 15 0 8 3 15 8 15 4 0 23 25 42 55 19 30 38 55 43 55 4 0 7 6 7 13 0 8
9 22 20 32 11 10 20 22 20 27 0 4 7 16 16 25 17 19 146 200 191 268 14 22 29
42 33 45 3 3 22 28 40 55 19 28 37 52 42 53 4 2 8 9 8 16 0 7 9 21 20 31 11
10 20 24 20 31 0 7 3 14 8 16 8 3 52 64 52 72 0 3 16 30 35 60 19 30 35 62 35
70 0 8 4 16 8 18 10 3 98 210 106 248 3 14 15 59 27 100 11 41 23 89 26 105 8
43 11 60 13 60 13 0 19 411 7 495 -4 25 -9 62 -12 83 -22 152 -109 422 -161
502 -9 14 -13 25 -9 25 3 0 -3 13 -14 29 -12 16 -21 34 -21 40 0 6 -3 11 -8
11 -4 0 -14 14 -21 32 -16 35 -62 107 -95 149 -12 14 -32 41 -46 59 -84 112
-281 296 -387 361 -21 13 -40 25 -43 28 -6 7 -46 30 -85 49 -16 8 -37 21 -45
28 -8 7 -17 13 -20 13 -5 0 -100 40 -145 61 -28 13 -169 58 -197 64 -13 2 -41
9 -63 15 -39 10 -56 13 -175 29 -30 4 -134 7 -230 7 -192 -1 -254 -6 -400 -37
-30 -6 -60 -12 -66 -14 -6 -1 -38 -10 -70 -19 -33 -10 -63 -18 -69 -20 -5 -1
-23 -7 -38 -13 -16 -7 -32 -12 -36 -12 -20 0 -209 -89 -311 -147 -64 -35 -167
-101 -192 -122 -7 -6 -31 -25 -53 -42 -59 -45 -142 -118 -187 -166 -33 -34
-71 -57 -118 -68 -3 -1 -18 -7 -35 -14 -16 -6 -43 -16 -60 -22 -16 -6 -43 -17
-60 -24 -16 -6 -46 -18 -65 -25 -68 -26 -140 -80 -170 -126 -16 -26 -27 -50
-25 -55 3 -4 1 -10 -4 -13 -5 -3 -7 -29 -4 -57 19 -201 272 -286 402 -135 9
10 21 24 28 31 13 14 49 114 57 161 3 16 8 40 11 54 23 107 37 179 38 200 2
29 8 38 59 88 74 75 256 222 273 222 4 0 21 11 38 24 18 13 59 38 92 56 33 18
65 36 70 40 6 4 42 21 80 38 39 16 88 38 110 48 22 9 42 18 45 19 3 1 25 7 50
14 25 7 63 19 85 26 22 8 55 17 74 20 19 3 37 7 40 9 3 2 24 7 46 10 22 3 51
8 65 11 50 11 107 16 220 20 64 2 120 4 125 6 6 1 12 1 15 0 3 -1 40 -4 83 -6
43 -3 90 -7 105 -10 15 -3 45 -7 67 -10 45 -6 80 -13 80 -15 0 -2 19 -7 56
-14 87 -19 260 -86 375 -146 75 -40 218 -132 239 -154 6 -6 26 -23 46 -38 57
-42 162 -150 234 -240 37 -46 73 -91 81 -101 8 -9 14 -22 14 -27 0 -6 5 -10
10 -10 6 0 10 -7 10 -15 0 -8 4 -15 9 -15 5 0 12 -11 15 -24 3 -14 12 -31 19
-38 29 -29 155 -308 139 -308 -4 0 -2 -4 4 -8 10 -7 49 -134 60 -197 3 -16 7
-39 9 -50 25 -125 32 -217 29 -364 -3 -165 -5 -184 -17 -251 -4 -19 -9 -46
-11 -60 -7 -38 -15 -70 -21 -90 -3 -10 -8 -27 -10 -37 -2 -10 -10 -37 -19 -60
-8 -24 -13 -43 -11 -43 4 0 -19 -55 -77 -179 -42 -92 -105 -202 -122 -213 -6
-4 -8 -8 -4 -8 5 0 -8 -21 -28 -47 -19 -27 -41 -55 -47 -64 -7 -8 -16 -23 -22
-31 -9 -14 -59 -86 -145 -208 -14 -19 -27 -37 -30 -40 -3 -3 -16 -22 -30 -42
-14 -21 -29 -38 -33 -38 -5 0 -6 -4 -3 -9 3 -5 -1 -15 -10 -22 -9 -7 -36 -43
-60 -79 -66 -98 -78 -115 -86 -118 -5 -2 -8 -10 -8 -18 0 -8 -4 -14 -8 -14 -4
0 -16 -14 -26 -32 -11 -17 -25 -39 -32 -47 -31 -39 -84 -112 -84 -116 0 -4
-16 -26 -93 -129 -12 -15 -33 -45 -47 -66 -14 -21 -61 -88 -105 -150 -44 -61
-87 -122 -95 -133 -8 -12 -34 -48 -58 -80 -24 -31 -40 -57 -35 -57 4 0 3 -4
-3 -8 -6 -4 -35 -41 -65 -82 -29 -41 -57 -76 -61 -78 -5 -2 -8 -9 -8 -15 0 -7
-10 -24 -23 -39 -12 -15 -44 -59 -72 -99 -27 -40 -56 -78 -63 -86 -7 -7 -11
-13 -8 -13 5 0 -9 -20 -39 -54 -6 -6 -23 -31 -39 -55 -16 -25 -33 -50 -38 -55
-5 -6 -53 -74 -108 -151 -54 -77 -109 -155 -122 -173 -12 -18 -28 -39 -33 -45
-6 -7 -19 -25 -29 -42 -11 -16 -23 -34 -28 -40 -29 -36 -78 -106 -78 -111 0
-3 -6 -12 -12 -19 -20 -22 -30 -35 -78 -105 -24 -36 -58 -83 -75 -106 -16 -23
-37 -51 -45 -63 -37 -54 -312 -440 -339 -477 -17 -23 -31 -44 -31 -47 0 -4 -8
-15 -17 -25 -10 -10 -45 -58 -78 -106 -33 -49 -66 -94 -72 -101 -7 -8 -13 -18
-13 -24 0 -6 -4 -11 -8 -11 -4 0 -16 -15 -27 -32 -10 -18 -21 -35 -25 -38 -3
-3 -28 -36 -55 -75 -26 -38 -51 -72 -54 -75 -3 -3 -24 -32 -46 -64 -22 -33
-44 -64 -50 -70 -5 -6 -25 -34 -44 -61 -19 -28 -53 -76 -75 -108 -23 -33 -45
-66 -51 -75 -5 -9 -18 -25 -28 -36 -10 -11 -34 -47 -55 -78 -20 -32 -43 -58
-51 -58 -8 0 -12 3 -9 6 4 3 -1 22 -9 42 -8 20 -15 37 -14 37 1 0 0 7 -2 15
-20 66 -47 160 -53 185 -4 17 -9 35 -13 40 -3 6 -6 15 -7 20 -1 6 -16 60 -34
120 -50 172 -61 209 -64 220 -7 27 -38 136 -53 185 -9 30 -18 60 -19 65 -4 24
-68 247 -95 332 -5 18 -12 40 -14 50 -6 26 -20 76 -50 178 -14 50 -27 97 -28
105 -2 8 -11 40 -20 70 -40 131 -66 227 -72 259 -3 19 -9 39 -13 45 -3 6 -8
20 -9 31 -2 11 -8 31 -13 45 -5 14 -11 34 -13 45 -2 11 -7 27 -10 35 -5 13
-33 114 -138 495 -11 39 -21 77 -24 85 -2 8 -15 53 -28 100 -28 97 -109 388
-139 500 -11 41 -23 82 -26 90 -3 8 -6 20 -7 25 -5 19 -65 230 -74 260 -8 26
-29 101 -36 130 -1 6 -4 17 -8 25 -6 17 -122 430 -142 505 -7 28 -23 82 -35
120 -11 39 -23 77 -25 86 -2 9 -13 49 -26 90 -12 41 -24 79 -25 86 -1 7 -12
45 -24 85 -68 228 -81 275 -85 298 -1 7 -46 152 -53 170 -3 8 -6 20 -7 25 -8
30 -99 336 -112 374 -8 24 -16 51 -18 60 -5 21 -32 109 -90 296 -26 83 -53
170 -60 195 -44 152 -84 248 -110 270 -8 7 -15 18 -15 25 0 24 -126 182 -220
275 -91 90 -256 220 -279 220 -6 0 -11 4 -11 8 0 8 -255 144 -262 141 -2 -1
-19 5 -38 13 -19 8 -53 20 -75 27 -22 7 -47 15 -55 18 -8 3 -19 7 -25 8 -5 2
-39 10 -75 20 -79 21 -147 33 -220 41 -57 5 -268 12 -273 8z"/>
<path d="M2480 8259 c-314 -324 -346 -358 -350 -381 -2 -13 -4 -63 -4 -113 0
-73 6 -112 33 -205 18 -63 34 -119 36 -125 1 -5 4 -17 7 -25 8 -22 39 -132 43
-150 1 -8 5 -22 8 -30 10 -27 35 -114 57 -195 11 -44 25 -91 30 -105 11 -35
39 -131 45 -155 2 -11 17 -64 34 -118 16 -54 29 -99 29 -100 -1 -1 11 -40 25
-87 13 -47 28 -98 32 -115 5 -16 10 -34 11 -40 8 -26 46 -152 49 -165 2 -8 16
-55 30 -105 14 -49 28 -101 31 -115 3 -13 10 -30 16 -37 6 -7 8 -13 5 -13 -4
0 0 -18 8 -40 8 -22 12 -40 9 -40 -2 0 0 -8 5 -18 6 -11 12 -30 15 -43 3 -13
15 -55 26 -94 12 -38 22 -74 24 -80 1 -5 11 -37 21 -70 10 -33 19 -67 20 -75
1 -8 5 -22 8 -30 3 -8 25 -80 47 -160 22 -80 45 -156 49 -170 15 -45 32 -105
35 -122 1 -10 5 -21 9 -24 4 -4 7 -15 7 -24 0 -9 9 -46 21 -81 12 -35 22 -71
24 -79 2 -8 15 -55 30 -105 14 -49 28 -97 30 -105 2 -8 4 -15 5 -15 1 0 4 -11
7 -25 6 -32 9 -42 16 -60 4 -8 36 -118 72 -245 64 -224 71 -246 79 -282 2 -10
11 -39 20 -64 9 -25 17 -54 19 -65 2 -10 7 -26 10 -34 4 -8 9 -26 11 -40 3
-14 5 -25 6 -25 2 0 90 -298 93 -315 2 -8 9 -35 17 -60 7 -25 14 -49 16 -55 2
-9 30 -110 70 -255 8 -30 16 -62 17 -70 2 -8 6 -21 10 -28 5 -6 6 -12 3 -12
-3 0 -1 -12 5 -27 6 -16 12 -35 14 -43 2 -8 34 -112 70 -230 37 -118 68 -222
70 -230 2 -8 4 -16 5 -17 2 -2 3 -6 4 -10 1 -5 10 -35 21 -68 10 -33 19 -64
21 -70 1 -5 12 -44 23 -85 23 -83 78 -304 86 -348 3 -15 7 -38 10 -52 3 -14 8
-38 10 -55 2 -16 7 -46 10 -65 30 -190 35 -449 10 -581 -13 -69 -19 -91 -42
-169 -47 -163 -135 -309 -268 -449 -50 -53 -79 -73 -175 -120 -64 -31 -129
-61 -145 -68 -43 -18 -117 -44 -135 -48 -8 -2 -15 -4 -15 -5 0 -2 -20 -7 -59
-15 -16 -3 -33 -8 -38 -11 -10 -6 -77 -20 -183 -38 -173 -30 -508 -28 -650 4
-22 5 -51 11 -65 14 -89 16 -216 54 -330 98 -124 47 -416 211 -428 240 -2 4
-8 8 -14 8 -5 0 -15 6 -22 12 -7 7 -28 24 -47 38 -92 68 -369 367 -369 399 0
6 -3 11 -7 11 -5 0 -21 21 -38 48 -16 26 -32 49 -35 52 -3 3 -16 28 -30 55
-14 28 -27 52 -30 55 -28 26 -167 394 -172 455 -1 14 -5 25 -9 25 -3 0 -6 6
-6 13 -1 27 -13 109 -17 115 -11 18 -19 152 -20 312 -1 175 3 226 29 381 16
94 75 286 120 394 51 121 162 319 189 337 6 4 8 8 4 8 -11 0 90 132 152 199
14 15 50 37 80 48 30 11 100 38 155 59 55 22 102 39 105 39 18 0 121 60 151
87 67 62 90 162 57 243 -16 38 -75 103 -102 111 -12 4 -24 11 -27 17 -4 5 -36
11 -70 13 -110 6 -198 -53 -242 -165 -11 -25 -21 -56 -23 -68 -7 -37 -48 -232
-59 -280 -3 -11 -21 -37 -40 -57 -19 -20 -35 -38 -35 -41 0 -2 -10 -15 -23
-28 -53 -56 -176 -236 -217 -317 -12 -25 -29 -53 -38 -62 -8 -10 -12 -18 -8
-18 4 0 0 -12 -8 -27 -56 -103 -142 -363 -161 -493 -8 -50 -13 -75 -15 -75
-13 0 -19 -450 -7 -540 24 -182 54 -302 117 -470 35 -93 108 -253 120 -265 3
-3 17 -27 30 -53 14 -26 33 -57 43 -67 9 -11 17 -23 17 -27 0 -4 23 -37 50
-73 27 -36 60 -78 72 -95 31 -40 224 -232 278 -275 24 -19 48 -39 54 -45 18
-16 177 -121 221 -145 208 -116 439 -203 595 -225 14 -2 25 -4 25 -5 0 -1 50
-10 110 -20 143 -22 496 -20 601 5 12 2 38 7 59 11 21 3 70 14 109 25 39 11
80 21 91 23 11 2 21 5 23 6 1 1 7 4 12 5 6 1 12 4 15 5 3 1 8 3 13 4 8 1 56
20 127 48 95 39 392 186 461 229 127 78 310 239 399 350 11 13 37 45 58 71 20
25 37 51 37 57 0 6 4 11 9 11 5 0 14 14 21 30 7 17 16 30 20 30 15 0 145 272
181 380 64 194 83 310 82 505 0 90 -6 147 -17 186 -9 31 -19 65 -21 75 -6 25
-90 341 -114 429 -16 58 -106 385 -115 420 -2 6 -5 17 -8 25 -6 15 -26 89 -34
119 -9 41 -113 405 -149 526 -53 178 -155 537 -158 552 -1 10 -5 23 -8 28 -4
6 -10 24 -14 40 -5 17 -9 32 -10 35 -1 3 -5 19 -9 35 -4 17 -13 43 -19 59 -6
17 -12 37 -13 45 -1 9 -11 45 -22 81 -11 36 -32 104 -46 153 -14 48 -38 126
-52 175 -14 48 -30 101 -34 117 -5 17 -23 77 -40 135 -17 58 -35 119 -40 135
-4 17 -22 77 -40 135 -17 58 -39 132 -47 165 -9 33 -19 62 -22 65 -3 3 -7 11
-9 18 -1 7 -4 20 -6 30 -1 9 -6 24 -9 32 -5 12 -63 211 -71 245 -2 6 -6 17 -9
25 -3 8 -8 24 -10 35 -3 11 -15 52 -27 90 -11 39 -23 78 -25 88 -2 10 -9 35
-16 55 -6 20 -13 42 -14 47 -1 6 -3 13 -4 17 -1 4 -8 26 -16 49 -9 23 -17 51
-19 63 -4 20 -55 190 -98 326 -11 36 -22 76 -24 89 -3 13 -13 49 -23 80 -10
31 -26 83 -36 116 -9 33 -22 76 -28 95 -6 19 -12 37 -12 40 -7 35 -19 77 -23
85 -4 6 -7 15 -8 20 -1 6 -25 91 -54 189 -29 99 -53 185 -54 190 -1 6 -5 17
-9 24 -5 6 -6 12 -3 12 3 0 -1 17 -9 38 -8 20 -16 46 -18 57 -2 11 -7 27 -10
35 -6 17 -19 75 -17 75 1 0 -5 18 -14 40 -9 22 -17 49 -19 60 -2 11 -7 27 -10
35 -3 8 -31 107 -62 220 -32 112 -63 219 -69 237 l-11 32 -175 -180z"/>
</g>
</svg>
