<svg width="60" height="60" viewBox="0 0 60 60" fill="none" xmlns="http://www.w3.org/2000/svg">
<path fill-rule="evenodd" clip-rule="evenodd" d="M40.6128 25.3871C44.6931 24.9834 48.7836 26.0497 52.1477 28.394C55.5117 30.7382 57.9285 34.2064 58.9627 38.1741C59.9969 42.1418 59.5807 46.3484 57.7891 50.0366C57.6684 50.285 57.3692 50.3885 57.1208 50.2679C56.8725 50.1472 56.7689 49.848 56.8896 49.5996C58.5772 46.1258 58.9692 42.1636 57.995 38.4263C57.0209 34.6891 54.7446 31.4225 51.5759 29.2144C48.4073 27.0064 44.5545 26.002 40.7112 26.3822C36.8679 26.7624 33.2865 28.5021 30.6119 31.2882C27.9373 34.0742 26.3451 37.7236 26.1221 41.5792C25.899 45.4349 27.0597 49.2435 29.3952 52.3194C31.7307 55.3953 35.0875 57.5364 38.8613 58.3573C42.6352 59.1781 46.5781 58.6248 49.9802 56.7969C50.2235 56.6662 50.5266 56.7575 50.6573 57.0007C50.788 57.244 50.6968 57.5471 50.4535 57.6778C46.8415 59.6185 42.6554 60.2059 38.6488 59.3344C34.6422 58.4629 31.0783 56.1897 28.5987 52.9241C26.1192 49.6585 24.8869 45.6149 25.1237 41.5215C25.3605 37.428 27.0509 33.5536 29.8905 30.5957C32.7301 27.6377 36.5324 25.7907 40.6128 25.3871Z" fill="white"/>
<path fill-rule="evenodd" clip-rule="evenodd" d="M38.2656 34.2119C39.2137 33.8191 40.23 33.617 41.2563 33.617C42.2826 33.617 43.2988 33.8191 44.247 34.2119C45.1952 34.6046 46.0567 35.1803 46.7824 35.906C46.9777 36.1013 46.9777 36.4178 46.7824 36.6131C46.5872 36.8084 46.2706 36.8084 46.0753 36.6131C45.4425 35.9803 44.6912 35.4783 43.8643 35.1358C43.0375 34.7933 42.1513 34.617 41.2563 34.617C40.3613 34.617 39.4751 34.7933 38.6483 35.1358C37.8214 35.4783 37.0701 35.9803 36.4373 36.6131C35.8044 37.2459 35.3024 37.9972 34.9599 38.8241C34.6174 39.6509 34.4412 40.5371 34.4412 41.4321C34.4412 42.3271 34.6174 43.2133 34.9599 44.0402C35.3024 44.867 35.8044 45.6183 36.4373 46.2511C36.6325 46.4464 36.6325 46.763 36.4373 46.9582C36.242 47.1535 35.9254 47.1535 35.7302 46.9582C35.0045 46.2325 34.4288 45.371 34.0361 44.4228C33.6433 43.4747 33.4412 42.4584 33.4412 41.4321C33.4412 40.4058 33.6433 39.3896 34.0361 38.4414C34.4288 37.4932 35.0045 36.6317 35.7302 35.906C36.4559 35.1803 37.3174 34.6046 38.2656 34.2119Z" fill="white"/>
<path d="M11.967 5.97645L15.8386 4.94193L11.967 5.97645Z" fill="#BF7E68"/>
<path fill-rule="evenodd" clip-rule="evenodd" d="M16.3216 4.81286C16.3929 5.07964 16.2344 5.3537 15.9676 5.42499L12.0961 6.4595C11.8293 6.53079 11.5552 6.37231 11.4839 6.10552C11.4126 5.83874 11.5711 5.56468 11.8379 5.4934L15.7095 4.45888C15.9763 4.3876 16.2503 4.54608 16.3216 4.81286Z" fill="white"/>
<path d="M11.9231 1.02759L10.8771 4.94203L11.9231 1.02759Z" fill="#BF7E68"/>
<path fill-rule="evenodd" clip-rule="evenodd" d="M12.0522 0.544539C12.3189 0.615828 12.4774 0.889888 12.4061 1.15667L11.3601 5.07111C11.2888 5.33789 11.0148 5.49637 10.748 5.42508C10.4812 5.35379 10.3227 5.07973 10.394 4.81295L11.44 0.89851C11.5113 0.631728 11.7854 0.47325 12.0522 0.544539Z" fill="white"/>
<path fill-rule="evenodd" clip-rule="evenodd" d="M45.2839 52.7666C45.0886 52.5713 45.0886 52.2548 45.2839 52.0595L52.3315 45.0118C52.5268 44.8166 52.8433 44.8166 53.0386 45.0118L56.776 48.7492C57.5864 49.5596 58.0417 50.6588 58.0417 51.8049C58.0417 52.951 57.5864 54.0502 56.776 54.8606L55.1326 56.504C54.3222 57.3144 53.223 57.7697 52.0769 57.7697C50.9308 57.7697 49.8316 57.3144 49.0212 56.504L45.2839 52.7666ZM46.3445 52.413L49.7283 55.7969C50.3512 56.4197 51.196 56.7697 52.0769 56.7697C52.9578 56.7697 53.8027 56.4197 54.4255 55.7969L56.0689 54.1535C56.6917 53.5306 57.0417 52.6858 57.0417 51.8049C57.0417 50.924 56.6917 50.0792 56.0689 49.4563L52.6851 46.0725L46.3445 52.413Z" fill="white"/>
<path fill-rule="evenodd" clip-rule="evenodd" d="M5.9225 10.4571C6.19157 10.5192 6.35935 10.7877 6.29725 11.0568L5.40276 14.9325C5.34066 15.2016 5.0722 15.3694 4.80313 15.3073C4.53406 15.2452 4.36628 14.9767 4.42838 14.7077L5.32287 10.8319C5.38496 10.5628 5.65343 10.395 5.9225 10.4571Z" fill="white"/>
<path fill-rule="evenodd" clip-rule="evenodd" d="M5.28677 9.91548C5.34886 10.1846 5.18106 10.453 4.91199 10.5151L1.1125 11.3918C0.843428 11.4539 0.57497 11.2861 0.512882 11.017C0.450795 10.748 0.618588 10.4795 0.88766 10.4174L4.68715 9.5407C4.95622 9.47861 5.22468 9.64641 5.28677 9.91548Z" fill="white"/>
<path d="M10.6535 14.8201L46.9419 51.1086L10.6535 14.8201Z" fill="#BF7E68"/>
<path fill-rule="evenodd" clip-rule="evenodd" d="M10.2999 14.4666C10.4952 14.2713 10.8118 14.2713 11.007 14.4666L47.2955 50.755C47.4908 50.9503 47.4908 51.2669 47.2955 51.4621C47.1002 51.6574 46.7836 51.6574 46.5884 51.4621L10.2999 15.1737C10.1046 14.9784 10.1046 14.6618 10.2999 14.4666Z" fill="white"/>
<path d="M15.3318 10.0937L51.6443 46.4062L15.3318 10.0937Z" fill="#BF7E68"/>
<path fill-rule="evenodd" clip-rule="evenodd" d="M14.9782 9.74018C15.1735 9.54492 15.49 9.54492 15.6853 9.74018L51.9978 46.0527C52.1931 46.2479 52.1931 46.5645 51.9978 46.7598C51.8026 46.9551 51.486 46.9551 51.2907 46.7598L14.9782 10.4473C14.7829 10.252 14.7829 9.93544 14.9782 9.74018Z" fill="white"/>
<path d="M13.0945 12.563L49.291 48.7595L13.0945 12.563Z" fill="#BF7E68"/>
<path fill-rule="evenodd" clip-rule="evenodd" d="M12.7409 12.2095C12.9362 12.0142 13.2528 12.0142 13.4481 12.2095L49.6446 48.406C49.8398 48.6013 49.8398 48.9178 49.6446 49.1131C49.4493 49.3084 49.1327 49.3084 48.9375 49.1131L12.7409 12.9166C12.5457 12.7213 12.5457 12.4047 12.7409 12.2095Z" fill="white"/>
<path fill-rule="evenodd" clip-rule="evenodd" d="M3.65088 4.54881C3.22024 4.97945 2.97831 5.56353 2.97831 6.17255C2.97831 6.78158 3.22024 7.36565 3.65088 7.7963L10.1868 14.3323L14.652 9.86706L6.49234 1.70735L3.65088 4.54881ZM1.97831 6.17255C1.97831 5.29831 2.32559 4.45988 2.94378 3.8417L6.13878 0.646691C6.33405 0.451429 6.65063 0.451429 6.84589 0.646691L15.7127 9.5135C15.908 9.70877 15.908 10.0254 15.7127 10.2206L10.5404 15.3929C10.3451 15.5882 10.0286 15.5882 9.83329 15.3929L2.94378 8.50341C2.3256 7.88522 1.97831 7.04679 1.97831 6.17255Z" fill="white"/>
<path fill-rule="evenodd" clip-rule="evenodd" d="M33.7726 9.23331C33.9678 9.42857 33.9678 9.74516 33.7726 9.94042L31.1602 12.5528C30.9649 12.7481 30.6483 12.7481 30.4531 12.5528C30.2578 12.3576 30.2578 12.041 30.4531 11.8457L33.0655 9.23331C33.2607 9.03805 33.5773 9.03805 33.7726 9.23331Z" fill="white"/>
<path fill-rule="evenodd" clip-rule="evenodd" d="M27.6717 7.51936C27.9479 7.51936 28.1717 7.74321 28.1717 8.01936V11.1542C28.1717 11.4304 27.9479 11.6542 27.6717 11.6542C27.3956 11.6542 27.1717 11.4304 27.1717 11.1542V8.01936C27.1717 7.74321 27.3956 7.51936 27.6717 7.51936Z" fill="white"/>
<path fill-rule="evenodd" clip-rule="evenodd" d="M30.3066 15.3342C30.3066 15.058 30.5305 14.8342 30.8066 14.8342H34.9865C35.2626 14.8342 35.4865 15.058 35.4865 15.3342C35.4865 15.6103 35.2626 15.8342 34.9865 15.8342H30.8066C30.5305 15.8342 30.3066 15.6103 30.3066 15.3342Z" fill="white"/>
<path fill-rule="evenodd" clip-rule="evenodd" d="M12.8733 29.0876C13.0686 29.2828 13.0686 29.5994 12.8733 29.7947L10.2609 32.4071C10.0656 32.6024 9.74905 32.6024 9.55379 32.4071C9.35853 32.2118 9.35853 31.8952 9.55379 31.7L12.1662 29.0876C12.3615 28.8923 12.678 28.8923 12.8733 29.0876Z" fill="white"/>
<path fill-rule="evenodd" clip-rule="evenodd" d="M7.83989 26.3063C7.83989 26.0301 8.06375 25.8063 8.33989 25.8063H11.4748C11.7509 25.8063 11.9748 26.0301 11.9748 26.3063C11.9748 26.5824 11.7509 26.8063 11.4748 26.8063H8.33989C8.06375 26.8063 7.83989 26.5824 7.83989 26.3063Z" fill="white"/>
<path fill-rule="evenodd" clip-rule="evenodd" d="M15.6546 28.9411C15.9308 28.9411 16.1546 29.165 16.1546 29.4411V33.621C16.1546 33.8971 15.9308 34.121 15.6546 34.121C15.3785 34.121 15.1546 33.8971 15.1546 33.621V29.4411C15.1546 29.165 15.3785 28.9411 15.6546 28.9411Z" fill="white"/>
<path d="M53.7958 51.9078C54.3729 51.9078 54.8408 51.4399 54.8408 50.8628C54.8408 50.2857 54.3729 49.8179 53.7958 49.8179C53.2187 49.8179 52.7509 50.2857 52.7509 50.8628C52.7509 51.4399 53.2187 51.9078 53.7958 51.9078Z" fill="white"/>
<path d="M51.2618 54.3959C51.8389 54.3959 52.3068 53.9281 52.3068 53.351C52.3068 52.7739 51.8389 52.306 51.2618 52.306C50.6847 52.306 50.2168 52.7739 50.2168 53.351C50.2168 53.9281 50.6847 54.3959 51.2618 54.3959Z" fill="white"/>
</svg>
