<svg width="58" height="60" viewBox="0 0 58 60" fill="none" xmlns="http://www.w3.org/2000/svg">
<path d="M50.289 55.9224H50.789C50.789 55.7857 50.7331 55.655 50.6342 55.5607L50.289 55.9224ZM14.4594 55.9224V56.4224V55.9224ZM50.289 46.6895L50.602 47.0794C50.7202 46.9845 50.789 46.8411 50.789 46.6895H50.289ZM50.289 43.6119H50.789C50.789 43.3357 50.5651 43.1119 50.289 43.1119V43.6119ZM6.67042 51.3059H6.17042H6.67042ZM50.289 59V59.5C50.5651 59.5 50.789 59.2761 50.789 59H50.289ZM6.97953 16.703C6.99815 16.9785 7.23659 17.1868 7.51211 17.1682C7.78762 17.1496 7.99588 16.9111 7.97726 16.6356L6.97953 16.703ZM9.86911 11.8098L10.3049 11.5646C10.2364 11.4429 10.1201 11.3553 9.98423 11.3232C9.84831 11.291 9.70514 11.3172 9.58938 11.3953L9.86911 11.8098ZM16.4758 22.0958C16.6721 22.2899 16.9887 22.2881 17.1828 22.0918C17.377 21.8954 17.3752 21.5788 17.1789 21.3847L16.4758 22.0958ZM18.3249 21.0262L17.9735 20.6705L17.9733 20.6707L18.3249 21.0262ZM18.8358 20.5215L18.4845 20.1657L18.4845 20.1657L18.8358 20.5215ZM26.25 19.7962L26.525 19.3786L26.5249 19.3786L26.25 19.7962ZM26.8824 20.2127L27.3084 20.4745C27.4498 20.2444 27.383 19.9436 27.1574 19.7951L26.8824 20.2127ZM21.9047 29.0178L22.3508 29.2436L22.3509 29.2434L21.9047 29.0178ZM5.22892 30.1462L5.55878 29.7704L5.55371 29.7661L5.22892 30.1462ZM1 23.1169L1.48825 23.0091C1.43841 22.7834 1.24033 22.6213 1.00919 22.617C0.778053 22.6128 0.57414 22.7675 0.516046 22.9913L1 23.1169ZM6.77427 25.5565V26.0565C6.98034 26.0565 7.16531 25.93 7.24014 25.738C7.31497 25.546 7.26433 25.3278 7.1126 25.1883L6.77427 25.5565ZM5.22788 14.0974L5.651 14.3638C5.6792 14.3191 5.70012 14.2701 5.71296 14.2187L5.22788 14.0974ZM13.3825 21.8551L13.1604 22.3031L13.1641 22.3049L13.3825 21.8551ZM16.6321 22.0603L16.4757 21.5853L16.4722 21.5865L16.6321 22.0603ZM50.0284 16.5497C50.015 16.8255 50.2278 17.06 50.5036 17.0733C50.7794 17.0867 51.0139 16.874 51.0272 16.5981L50.0284 16.5497ZM48.1309 11.8098L48.411 11.3956C48.2953 11.3173 48.152 11.291 48.016 11.3231C47.88 11.3552 47.7636 11.4428 47.6951 11.5646L48.1309 11.8098ZM40.8211 21.3847C40.6248 21.5788 40.623 21.8954 40.8171 22.0918C41.0113 22.2881 41.3279 22.2899 41.5242 22.0958L40.8211 21.3847ZM39.6741 21.0262L40.0255 20.6705L40.0255 20.6705L39.6741 21.0262ZM39.1631 20.5215L39.5145 20.1657L39.5145 20.1657L39.1631 20.5215ZM31.749 19.7962L31.474 19.3786L31.4737 19.3788L31.749 19.7962ZM31.1176 20.2127L30.8423 19.7953C30.617 19.9439 30.5503 20.2444 30.6915 20.4744L31.1176 20.2127ZM36.0953 29.0178L35.6492 29.2435L35.6492 29.2436L36.0953 29.0178ZM52.7711 30.1462L52.4463 29.766L52.4412 29.7704L52.7711 30.1462ZM57 23.12V22.62C56.7654 22.62 56.5624 22.7831 56.5118 23.0121L57 23.12ZM51.2237 25.5565L50.8854 25.1883C50.7336 25.3277 50.6829 25.546 50.7578 25.738C50.8326 25.93 51.0176 26.0565 51.2237 26.0565V25.5565ZM52.7711 14.0974L53.1942 13.8311C53.1053 13.6898 52.9516 13.6022 52.7847 13.5976C52.6178 13.5931 52.4596 13.6721 52.3631 13.8084L52.7711 14.0974ZM44.6154 21.8551L44.8339 22.3049L44.8377 22.303L44.6154 21.8551ZM41.3669 22.0603L41.5268 21.5865L41.5235 21.5854L41.3669 22.0603ZM52.8661 1C52.8661 0.723858 52.6422 0.5 52.3661 0.5C52.0899 0.5 51.8661 0.723858 51.8661 1H52.8661ZM51.8661 2.45161C51.8661 2.72776 52.0899 2.95161 52.3661 2.95161C52.6422 2.95161 52.8661 2.72776 52.8661 2.45161H51.8661ZM52.8661 6.80536C52.8661 6.52922 52.6422 6.30536 52.3661 6.30536C52.0899 6.30536 51.8661 6.52922 51.8661 6.80536H52.8661ZM51.8661 8.25697C51.8661 8.53311 52.0899 8.75697 52.3661 8.75697C52.6422 8.75697 52.8661 8.53311 52.8661 8.25697H51.8661ZM48.6927 4.12863C48.4166 4.12863 48.1927 4.35249 48.1927 4.62863C48.1927 4.90477 48.4166 5.12863 48.6927 5.12863V4.12863ZM50.1623 5.12863C50.4384 5.12863 50.6623 4.90477 50.6623 4.62863C50.6623 4.35249 50.4384 4.12863 50.1623 4.12863V5.12863ZM54.5698 4.12863C54.2937 4.12863 54.0698 4.35249 54.0698 4.62863C54.0698 4.90477 54.2937 5.12863 54.5698 5.12863V4.12863ZM56.0394 5.12863C56.3155 5.12863 56.5394 4.90477 56.5394 4.62863C56.5394 4.35249 56.3155 4.12863 56.0394 4.12863V5.12863ZM44.0578 50.2671C44.3339 50.2671 44.5578 50.0433 44.5578 49.7671C44.5578 49.491 44.3339 49.2671 44.0578 49.2671V50.2671ZM27.4412 49.2671C27.165 49.2671 26.9412 49.491 26.9412 49.7671C26.9412 50.0433 27.165 50.2671 27.4412 50.2671V49.2671ZM34.7109 52.3447C34.4348 52.3447 34.2109 52.5686 34.2109 52.8447C34.2109 53.1209 34.4348 53.3447 34.7109 53.3447V52.3447ZM44.0578 53.3447C44.3339 53.3447 44.5578 53.1209 44.5578 52.8447C44.5578 52.5686 44.3339 52.3447 44.0578 52.3447V53.3447ZM13.9402 49.2671C13.664 49.2671 13.4402 49.491 13.4402 49.7671C13.4402 50.0433 13.664 50.2671 13.9402 50.2671V49.2671ZM24.3256 50.2671C24.6017 50.2671 24.8256 50.0433 24.8256 49.7671C24.8256 49.491 24.6017 49.2671 24.3256 49.2671V50.2671ZM22.2485 52.3447C21.9723 52.3447 21.7485 52.5686 21.7485 52.8447C21.7485 53.1209 21.9723 53.3447 22.2485 53.3447V52.3447ZM28.4797 53.3447C28.7558 53.3447 28.9797 53.1209 28.9797 52.8447C28.9797 52.5686 28.7558 52.3447 28.4797 52.3447V53.3447ZM29.0182 10.7839C29.0182 11.06 29.2421 11.2839 29.5182 11.2839C29.7944 11.2839 30.0182 11.06 30.0182 10.7839H29.0182ZM30.0182 5.65451C30.0182 5.37836 29.7944 5.15451 29.5182 5.15451C29.2421 5.15451 29.0182 5.37836 29.0182 5.65451H30.0182ZM25.0127 11.1396C25.2092 11.3337 25.5257 11.3317 25.7198 11.1353C25.9139 10.9388 25.9119 10.6222 25.7155 10.4282L25.0127 11.1396ZM23.6384 8.37642C23.4419 8.18235 23.1254 8.1843 22.9313 8.38075C22.7372 8.57721 22.7392 8.89379 22.9356 9.08785L23.6384 8.37642ZM33.321 10.4282C33.1245 10.6222 33.1226 10.9388 33.3167 11.1353C33.5107 11.3317 33.8273 11.3337 34.0238 11.1396L33.321 10.4282ZM36.6201 8.57491C36.8166 8.38085 36.8185 8.06427 36.6244 7.86782C36.4304 7.67136 36.1138 7.66942 35.9174 7.86348L36.6201 8.57491ZM50.289 55.4224H14.4594V56.4224H50.289V55.4224ZM14.4594 55.4224C13.3506 55.4224 12.2884 54.9872 11.5062 54.2145L10.8035 54.926C11.7741 55.8848 13.0893 56.4224 14.4594 56.4224V55.4224ZM11.5062 54.2145C10.7242 53.4421 10.286 52.3957 10.286 51.3059H9.28603C9.28603 52.6649 9.8326 53.9669 10.8035 54.926L11.5062 54.2145ZM10.286 51.3059C10.286 50.2162 10.7242 49.1698 11.5062 48.3973L10.8035 47.6859C9.83259 48.6449 9.28603 49.947 9.28603 51.3059H10.286ZM11.5062 48.3973C12.2884 47.6247 13.3506 47.1895 14.4594 47.1895V46.1895C13.0893 46.1895 11.7741 46.7271 10.8035 47.6859L11.5062 48.3973ZM14.4594 47.1895H50.289V46.1895H14.4594V47.1895ZM50.6342 55.5607C49.213 54.2042 48.4794 52.6685 48.449 51.2071C48.419 49.7584 49.0778 48.303 50.602 47.0794L49.976 46.2996C48.2454 47.6889 47.4118 49.4255 47.4493 51.2278C47.4864 53.0174 48.3802 54.7917 49.9438 56.2841L50.6342 55.5607ZM50.789 46.6895V43.6119H49.789V46.6895H50.789ZM50.289 43.1119H14.4594V44.1119H50.289V43.1119ZM14.4594 43.1119C12.263 43.1119 10.1553 43.9737 8.6004 45.5097L9.30315 46.2211C10.6697 44.8713 12.5243 44.1119 14.4594 44.1119V43.1119ZM8.6004 45.5097C7.04523 47.0459 6.17042 49.1307 6.17042 51.3059H7.17042C7.17042 49.3999 7.93686 47.5708 9.30315 46.2211L8.6004 45.5097ZM6.17042 51.3059C6.17042 53.4811 7.04523 55.566 8.6004 57.1022L9.30315 56.3907C7.93686 55.0411 7.17042 53.2119 7.17042 51.3059H6.17042ZM8.6004 57.1022C10.1553 58.6382 12.263 59.5 14.4594 59.5V58.5C12.5243 58.5 10.6697 57.7406 9.30315 56.3907L8.6004 57.1022ZM14.4594 59.5H50.289V58.5H14.4594V59.5ZM50.789 59V55.9224H49.789V59H50.789ZM7.97726 16.6356C7.91931 15.7781 8.08881 14.9203 8.46935 14.1468L7.57206 13.7053C7.11406 14.6363 6.9097 15.6696 6.97953 16.703L7.97726 16.6356ZM8.46935 14.1468C8.84992 13.3732 9.42859 12.7103 10.1488 12.2242L9.58938 11.3953C8.7256 11.9784 8.03004 12.7744 7.57206 13.7053L8.46935 14.1468ZM9.86911 11.8098C9.43333 12.0549 9.43336 12.055 9.43341 12.055C9.43344 12.0551 9.43351 12.0552 9.43358 12.0553C9.43372 12.0556 9.43392 12.0559 9.43418 12.0564C9.4347 12.0573 9.43545 12.0587 9.43643 12.0604C9.4384 12.0639 9.4413 12.069 9.44511 12.0758C9.45272 12.0892 9.46398 12.1091 9.47873 12.135C9.50823 12.1868 9.55173 12.263 9.60808 12.3607C9.72079 12.5563 9.88498 12.8386 10.0916 13.1867C10.5047 13.8827 11.0878 14.8428 11.7685 15.8993C13.1226 18.0014 14.8874 20.5252 16.4758 22.0958L17.1789 21.3847C15.6755 19.8982 13.9612 17.4567 12.6091 15.3578C11.9367 14.3139 11.36 13.3646 10.9515 12.6763C10.7473 12.3322 10.5853 12.0537 10.4745 11.8614C10.4191 11.7653 10.3765 11.6907 10.3478 11.6404C10.3335 11.6152 10.3227 11.5961 10.3155 11.5834C10.3119 11.577 10.3092 11.5722 10.3074 11.5691C10.3065 11.5675 10.3059 11.5664 10.3055 11.5656C10.3052 11.5652 10.3051 11.565 10.305 11.5648C10.3049 11.5647 10.3049 11.5647 10.3049 11.5646C10.3049 11.5646 10.3049 11.5646 9.86911 11.8098ZM18.6763 21.3819L19.1872 20.8772L18.4845 20.1657L17.9735 20.6705L18.6763 21.3819ZM19.1872 20.8772C20.0656 20.0096 21.2221 19.4685 22.4603 19.3474L22.363 18.3521C20.8978 18.4954 19.5271 19.1358 18.4845 20.1657L19.1872 20.8772ZM22.4603 19.3474C23.6986 19.2262 24.9407 19.5327 25.975 20.2138L26.5249 19.3786C25.2988 18.5712 23.8281 18.2088 22.363 18.3521L22.4603 19.3474ZM25.975 20.2138L26.6074 20.6303L27.1574 19.7951L26.525 19.3786L25.975 20.2138ZM26.8824 20.2127C26.4564 19.9509 26.4564 19.9509 26.4564 19.951C26.4564 19.951 26.4563 19.9511 26.4563 19.9512C26.4562 19.9513 26.456 19.9516 26.4558 19.9519C26.4554 19.9525 26.4549 19.9534 26.4541 19.9546C26.4527 19.957 26.4505 19.9606 26.4476 19.9653C26.4418 19.9747 26.4333 19.9886 26.4221 20.0069C26.3997 20.0435 26.3667 20.0976 26.324 20.1677C26.2387 20.308 26.1146 20.5127 25.9595 20.7706C25.6493 21.2865 25.2148 22.0157 24.7171 22.8697C23.7227 24.5762 22.4725 26.7873 21.4585 28.7921L22.3509 29.2434C23.3517 27.2647 24.5904 25.0733 25.5811 23.3732C26.076 22.5238 26.5082 21.7987 26.8165 21.286C26.9706 21.0296 27.0938 20.8265 27.1783 20.6875C27.2206 20.6181 27.2532 20.5646 27.2752 20.5287C27.2862 20.5107 27.2946 20.4971 27.3001 20.488C27.3029 20.4834 27.305 20.48 27.3064 20.4777C27.3071 20.4766 27.3076 20.4758 27.3079 20.4752C27.3081 20.475 27.3082 20.4748 27.3083 20.4746C27.3084 20.4746 27.3084 20.4745 27.3084 20.4745C27.3084 20.4745 27.3084 20.4745 26.8824 20.2127ZM21.4586 28.792C19.7706 32.1268 17.4745 33.7847 14.838 33.9553C12.1646 34.1283 8.99339 32.785 5.55875 29.7704L4.8991 30.522C8.42474 33.6165 11.8492 35.1508 14.9026 34.9532C17.9929 34.7532 20.5545 32.7924 22.3508 29.2436L21.4586 28.792ZM5.55371 29.7661C3.49394 28.0063 2.06797 25.6353 1.48825 23.0091L0.511755 23.2247C1.13868 26.0647 2.68025 28.6263 4.90414 30.5264L5.55371 29.7661ZM1 22.6169C0.533655 22.9366 0.663713 23.4869 0.663837 23.4871C0.663892 23.4871 0.664027 23.4872 0.664137 23.4873C0.664358 23.4875 0.66462 23.4878 0.664923 23.488C0.665529 23.4886 0.6663 23.4893 0.667234 23.4901C0.669102 23.4918 0.671624 23.4941 0.674791 23.4969C0.681124 23.5026 0.690039 23.5105 0.701466 23.5205C0.724317 23.5405 0.757232 23.5689 0.799654 23.6046C0.884469 23.6758 1.00747 23.7761 1.16419 23.8956C1.47721 24.1344 1.92706 24.452 2.47787 24.7698C3.57105 25.4005 5.10392 26.0565 6.77427 26.0565V25.0565C5.35289 25.0565 3.99862 24.4927 2.9776 23.9036C2.47131 23.6115 2.05729 23.3192 1.77072 23.1006C1.62765 22.9914 1.51692 22.9011 1.44295 22.8389C1.40599 22.8079 1.37825 22.7839 1.3603 22.7682C1.35132 22.7603 1.3448 22.7545 1.34079 22.7509C1.33879 22.7492 1.33741 22.7479 1.33668 22.7473C1.33631 22.7469 1.3361 22.7467 1.33606 22.7467C1.33603 22.7467 1.33605 22.7467 1.33611 22.7467C1.33614 22.7468 1.33621 22.7468 1.33622 22.7469C1.33631 22.7469 1.46635 23.2973 1 23.6169V22.6169ZM7.1126 25.1883C5.63485 23.8303 4.68198 22.008 4.4156 20.0341L3.42458 20.1678C3.72241 22.3748 4.78748 24.4097 6.43594 25.9246L7.1126 25.1883ZM4.4156 20.0341C4.14923 18.0602 4.58564 16.0558 5.651 14.3638L4.80477 13.831C3.61497 15.7206 3.12675 17.9608 3.42458 20.1678L4.4156 20.0341ZM5.22788 14.0974C4.81975 14.3863 4.81981 14.3863 4.81988 14.3865C4.81993 14.3865 4.82002 14.3866 4.82011 14.3868C4.82029 14.387 4.82053 14.3874 4.82084 14.3878C4.82145 14.3887 4.82231 14.3899 4.82341 14.3914C4.82561 14.3945 4.82879 14.399 4.83293 14.4048C4.84121 14.4163 4.85333 14.4332 4.86919 14.4552C4.90089 14.499 4.9475 14.563 5.00804 14.6448C5.1291 14.8084 5.30596 15.0433 5.5308 15.3312C5.98023 15.9067 6.62265 16.6954 7.39541 17.549C8.92994 19.244 11.0204 21.2424 13.1604 22.3031L13.6045 21.4071C11.6402 20.4335 9.65342 18.5531 8.13673 16.8778C7.38388 16.0463 6.7572 15.2769 6.31895 14.7158C6.09994 14.4353 5.92831 14.2073 5.81184 14.0499C5.75361 13.9712 5.70919 13.9102 5.67956 13.8693C5.66474 13.8488 5.65363 13.8333 5.64633 13.8231C5.64268 13.818 5.63999 13.8142 5.63827 13.8118C5.6374 13.8106 5.63678 13.8097 5.63641 13.8092C5.63622 13.8089 5.6361 13.8087 5.63603 13.8086C5.636 13.8086 5.636 13.8086 5.63598 13.8085C5.63599 13.8086 5.63602 13.8086 5.22788 14.0974ZM13.1641 22.3049C13.7242 22.5768 14.3328 22.7369 14.9551 22.7762L15.0181 21.7782C14.5253 21.747 14.0436 21.6203 13.6008 21.4053L13.1641 22.3049ZM14.9551 22.7762C15.5774 22.8155 16.2016 22.7332 16.7919 22.534L16.4722 21.5865C16.0051 21.7441 15.511 21.8093 15.0181 21.7782L14.9551 22.7762ZM16.7884 22.5352C17.4995 22.3012 18.146 21.9064 18.6765 21.3817L17.9733 20.6707C17.5533 21.0861 17.0406 21.3994 16.4757 21.5853L16.7884 22.5352ZM51.0272 16.5981C51.0765 15.5816 50.8617 14.5698 50.4035 13.6591L49.5102 14.1085C49.8911 14.8656 50.0693 15.7059 50.0284 16.5497L51.0272 16.5981ZM50.4035 13.6591C49.9453 12.7484 49.2592 11.9693 48.411 11.3956L47.8507 12.2239C48.5582 12.7025 49.1293 13.3514 49.5102 14.1085L50.4035 13.6591ZM48.1309 11.8098C47.6951 11.5646 47.6951 11.5646 47.6951 11.5646C47.6951 11.5647 47.695 11.5647 47.695 11.5648C47.6949 11.565 47.6948 11.5652 47.6945 11.5656C47.6941 11.5664 47.6935 11.5675 47.6926 11.5691C47.6908 11.5722 47.6881 11.577 47.6845 11.5834C47.6773 11.5961 47.6665 11.6152 47.6521 11.6404C47.6235 11.6907 47.5809 11.7653 47.5255 11.8614C47.4147 12.0537 47.2527 12.3322 47.0485 12.6763C46.64 13.3646 46.0633 14.3139 45.3908 15.3578C44.0387 17.4567 42.3245 19.8982 40.8211 21.3847L41.5242 22.0958C43.1126 20.5252 44.8774 18.0014 46.2315 15.8993C46.9121 14.8428 47.4953 13.8827 47.9084 13.1867C48.115 12.8386 48.2792 12.5563 48.3919 12.3607C48.4483 12.263 48.4918 12.1868 48.5213 12.135C48.536 12.1091 48.5473 12.0892 48.5549 12.0758C48.5587 12.069 48.5616 12.0639 48.5636 12.0604C48.5645 12.0587 48.5653 12.0573 48.5658 12.0564C48.5661 12.0559 48.5663 12.0556 48.5664 12.0553C48.5665 12.0552 48.5665 12.0551 48.5666 12.055C48.5666 12.055 48.5667 12.0549 48.1309 11.8098ZM40.0255 20.6705L39.5145 20.1657L38.8117 20.8772L39.3227 21.3819L40.0255 20.6705ZM39.5145 20.1657C38.4718 19.1358 37.1011 18.4954 35.636 18.3521L35.5386 19.3474C36.7769 19.4685 37.9334 20.0096 38.8117 20.8772L39.5145 20.1657ZM35.636 18.3521C34.1709 18.2088 32.7002 18.5712 31.474 19.3786L32.024 20.2138C33.0583 19.5327 34.3003 19.2262 35.5386 19.3474L35.636 18.3521ZM31.4737 19.3788L30.8423 19.7953L31.3929 20.6301L32.0243 20.2135L31.4737 19.3788ZM31.1176 20.2127C30.6915 20.4744 30.6915 20.4744 30.6916 20.4744C30.6916 20.4745 30.6916 20.4745 30.6916 20.4746C30.6917 20.4747 30.6918 20.4749 30.692 20.4752C30.6924 20.4757 30.6929 20.4766 30.6936 20.4777C30.6949 20.4799 30.697 20.4834 30.6998 20.4879C30.7054 20.497 30.7137 20.5106 30.7247 20.5286C30.7467 20.5646 30.7793 20.618 30.8216 20.6875C30.9061 20.8264 31.0292 21.0296 31.1834 21.2859C31.4916 21.7986 31.9236 22.5238 32.4185 23.3731C33.4091 25.0733 34.6478 27.2648 35.6492 29.2435L36.5414 28.792C35.5269 26.7873 34.2768 24.5762 33.2825 22.8697C32.7849 22.0157 32.3505 21.2865 32.0404 20.7707C31.8853 20.5127 31.7613 20.3081 31.676 20.1678C31.6333 20.0976 31.6003 20.0436 31.5779 20.007C31.5667 19.9887 31.5582 19.9748 31.5524 19.9654C31.5496 19.9607 31.5474 19.9571 31.5459 19.9547C31.5452 19.9535 31.5446 19.9526 31.5442 19.952C31.544 19.9516 31.5439 19.9514 31.5438 19.9512C31.5437 19.9512 31.5437 19.9511 31.5437 19.951C31.5436 19.951 31.5436 19.951 31.1176 20.2127ZM35.6492 29.2436C37.4455 32.7924 40.0071 34.7532 43.0974 34.9532C46.1508 35.1508 49.5753 33.6165 53.1009 30.522L52.4412 29.7704C49.0066 32.785 45.8354 34.1283 43.162 33.9553C40.5255 33.7847 38.2294 32.1268 36.5414 28.792L35.6492 29.2436ZM53.0958 30.5264C55.3191 28.6272 56.8606 26.0667 57.4882 23.2279L56.5118 23.0121C55.9315 25.6372 54.5055 28.007 52.4463 29.766L53.0958 30.5264ZM57 23.12C56.6638 22.7499 56.6639 22.7498 56.664 22.7497C56.664 22.7497 56.6641 22.7496 56.6641 22.7496C56.6642 22.7496 56.6642 22.7495 56.6642 22.7496C56.6641 22.7496 56.6639 22.7498 56.6636 22.7501C56.6628 22.7508 56.6614 22.752 56.6594 22.7538C56.6554 22.7574 56.6489 22.7632 56.6399 22.771C56.622 22.7867 56.5943 22.8107 56.5573 22.8417C56.4833 22.9037 56.3726 22.994 56.2295 23.103C55.9429 23.3213 55.5288 23.6132 55.0224 23.905C54.0012 24.4933 52.6463 25.0565 51.2237 25.0565V26.0565C52.8948 26.0565 54.4281 25.4014 55.5216 24.7715C56.0725 24.4541 56.5224 24.1369 56.8355 23.8984C56.9923 23.779 57.1153 23.6789 57.2001 23.6077C57.2425 23.5721 57.2754 23.5437 57.2983 23.5237C57.3097 23.5137 57.3186 23.5058 57.325 23.5002C57.3281 23.4974 57.3307 23.4951 57.3325 23.4934C57.3335 23.4926 57.3342 23.4919 57.3348 23.4913C57.3351 23.4911 57.3354 23.4908 57.3356 23.4906C57.3357 23.4905 57.3359 23.4904 57.3359 23.4903C57.3361 23.4902 57.3362 23.4901 57 23.12ZM51.5619 25.9246C53.2106 24.4098 54.2759 22.375 54.5739 20.1681L53.5829 20.0342C53.3163 22.0082 52.3633 23.8303 50.8854 25.1883L51.5619 25.9246ZM54.5739 20.1681C54.8719 17.9611 54.3839 15.7208 53.1942 13.8311L52.3479 14.3638C53.4132 16.0559 53.8494 18.0604 53.5829 20.0342L54.5739 20.1681ZM52.7711 14.0974C52.3631 13.8084 52.3631 13.8083 52.3632 13.8083C52.3631 13.8083 52.3631 13.8083 52.3631 13.8084C52.363 13.8085 52.3629 13.8086 52.3627 13.8089C52.3623 13.8094 52.3617 13.8103 52.3609 13.8115C52.3591 13.8139 52.3564 13.8177 52.3528 13.8228C52.3455 13.833 52.3343 13.8485 52.3195 13.869C52.2898 13.91 52.2454 13.971 52.1871 14.0497C52.0705 14.207 51.8986 14.4351 51.6794 14.7156C51.2407 15.2768 50.6135 16.0461 49.8602 16.8777C48.3427 18.5531 46.3556 20.4336 44.3932 21.4072L44.8377 22.303C46.9755 21.2423 49.0661 19.244 50.6014 17.5491C51.3745 16.6955 52.0174 15.9069 52.4673 15.3314C52.6923 15.0435 52.8694 14.8086 52.9905 14.645C53.0511 14.5632 53.0978 14.4992 53.1295 14.4554C53.1454 14.4335 53.1576 14.4166 53.1658 14.405C53.17 14.3992 53.1732 14.3948 53.1754 14.3917C53.1765 14.3901 53.1773 14.3889 53.1779 14.3881C53.1782 14.3876 53.1785 14.3873 53.1787 14.387C53.1788 14.3869 53.1789 14.3868 53.1789 14.3867C53.179 14.3866 53.179 14.3865 52.7711 14.0974ZM44.397 21.4053C43.9544 21.6203 43.473 21.7471 42.9803 21.7782L43.0434 22.7762C43.6656 22.7369 44.274 22.5768 44.8339 22.3049L44.397 21.4053ZM42.9803 21.7782C42.4877 21.8093 41.9937 21.7441 41.5268 21.5865L41.207 22.534C41.7972 22.7332 42.4212 22.8155 43.0434 22.7762L42.9803 21.7782ZM41.5235 21.5854C40.9586 21.3991 40.4458 21.0857 40.0255 20.6705L39.3227 21.3819C39.8533 21.9061 40.4996 22.3007 41.2103 22.5351L41.5235 21.5854ZM27.9797 35.4049C27.9797 36.2561 27.2794 36.9566 26.4026 36.9566V37.9566C27.8201 37.9566 28.9797 36.8199 28.9797 35.4049H27.9797ZM26.4026 36.9566C25.5258 36.9566 24.8256 36.2561 24.8256 35.4049H23.8256C23.8256 36.8199 24.9851 37.9566 26.4026 37.9566V36.9566ZM24.8256 35.4049C24.8256 34.5536 25.5258 33.8531 26.4026 33.8531V32.8531C24.9851 32.8531 23.8256 33.9898 23.8256 35.4049H24.8256ZM26.4026 33.8531C27.2794 33.8531 27.9797 34.5536 27.9797 35.4049H28.9797C28.9797 33.9898 27.8201 32.8531 26.4026 32.8531V33.8531ZM46.6734 39.5084C46.6734 39.793 46.4381 40.0343 46.1348 40.0343V41.0343C46.9787 41.0343 47.6734 40.3569 47.6734 39.5084H46.6734ZM46.1348 40.0343C45.8316 40.0343 45.5963 39.793 45.5963 39.5084H44.5963C44.5963 40.3569 45.2909 41.0343 46.1348 41.0343V40.0343ZM45.5963 39.5084C45.5963 39.2237 45.8316 38.9825 46.1348 38.9825V37.9825C45.2909 37.9825 44.5963 38.6599 44.5963 39.5084H45.5963ZM46.1348 38.9825C46.4381 38.9825 46.6734 39.2237 46.6734 39.5084H47.6734C47.6734 38.6599 46.9787 37.9825 46.1348 37.9825V38.9825ZM51.8661 1V2.45161H52.8661V1H51.8661ZM51.8661 6.80536V8.25697H52.8661V6.80536H51.8661ZM48.6927 5.12863H50.1623V4.12863H48.6927V5.12863ZM54.5698 5.12863H56.0394V4.12863H54.5698V5.12863ZM44.0578 49.2671H27.4412V50.2671H44.0578V49.2671ZM34.7109 53.3447H44.0578V52.3447H34.7109V53.3447ZM13.9402 50.2671H24.3256V49.2671H13.9402V50.2671ZM22.2485 53.3447H28.4797V52.3447H22.2485V53.3447ZM30.0182 10.7839V5.65451H29.0182V10.7839H30.0182ZM25.7155 10.4282L23.6384 8.37642L22.9356 9.08785L25.0127 11.1396L25.7155 10.4282ZM34.0238 11.1396L36.6201 8.57491L35.9174 7.86348L33.321 10.4282L34.0238 11.1396Z" fill="white"/>
</svg>
