<svg width="48" height="54" viewBox="0 0 48 54" fill="none" xmlns="http://www.w3.org/2000/svg">
<path d="M28.2052 34.2333C27.9514 34.1245 27.6575 34.2421 27.5487 34.4959C27.4399 34.7497 27.5575 35.0436 27.8113 35.1524L28.2052 34.2333ZM35.9722 38.1065L35.7752 38.5661L35.7796 38.5679L35.9722 38.1065ZM41.0914 45.7053H41.5914L41.5914 45.7015L41.0914 45.7053ZM41.0914 53V53.5C41.3676 53.5 41.5914 53.2761 41.5914 53H41.0914ZM7.23645 53H6.73645C6.73645 53.2761 6.9603 53.5 7.23645 53.5V53ZM7.23645 45.7053L6.73645 45.7015V45.7053H7.23645ZM12.3557 38.1065L12.5483 38.5679L12.5527 38.566L12.3557 38.1065ZM20.7973 35.0318C21.0511 34.923 21.1686 34.629 21.0598 34.3752C20.951 34.1214 20.6571 34.0039 20.4032 34.1127L20.7973 35.0318ZM20.3575 36.6792C20.4544 36.9378 20.7426 37.0688 21.0011 36.9719C21.2597 36.875 21.3908 36.5868 21.2938 36.3282L20.3575 36.6792ZM20.6003 35.2621H20.1003V35.2623L20.6003 35.2621ZM21.1003 33.0449C21.1003 32.7687 20.8764 32.5449 20.6003 32.5449C20.3241 32.5449 20.1003 32.7687 20.1003 33.0449H21.1003ZM28.2276 33.0449C28.2276 32.7687 28.0038 32.5449 27.7276 32.5449C27.4515 32.5449 27.2276 32.7687 27.2276 33.0449H28.2276ZM27.7276 35.2621H27.2276L27.2276 35.2625L27.7276 35.2621ZM27.0334 36.332C26.9361 36.5904 27.0667 36.8788 27.3251 36.9761C27.5836 37.0734 27.8719 36.9428 27.9692 36.6843L27.0334 36.332ZM13.8638 52.113C13.8638 52.3891 14.0877 52.613 14.3638 52.613C14.6399 52.613 14.8638 52.3891 14.8638 52.113H13.8638ZM14.8638 46.7916C14.8638 46.5155 14.6399 46.2916 14.3638 46.2916C14.0877 46.2916 13.8638 46.5155 13.8638 46.7916H14.8638ZM33.4641 52.113C33.4641 52.3891 33.6879 52.613 33.9641 52.613C34.2402 52.613 34.4641 52.3891 34.4641 52.113H33.4641ZM34.4641 46.7916C34.4641 46.5155 34.2402 46.2916 33.9641 46.2916C33.6879 46.2916 33.4641 46.5155 33.4641 46.7916H34.4641ZM42.1899 2.50274C42.3856 2.30792 42.3863 1.99134 42.1915 1.79564C41.9967 1.59993 41.6801 1.59921 41.4844 1.79403L42.1899 2.50274ZM38.2111 5.05246C38.0154 5.24728 38.0147 5.56386 38.2095 5.75957C38.4043 5.95527 38.7209 5.95599 38.9166 5.76117L38.2111 5.05246ZM38.9166 1.79403C38.7209 1.59921 38.4043 1.59993 38.2095 1.79564C38.0147 1.99134 38.0154 2.30792 38.2111 2.50274L38.9166 1.79403ZM41.4844 5.76117C41.6801 5.95599 41.9967 5.95527 42.1915 5.75957C42.3863 5.56386 42.3856 5.24728 42.1899 5.05246L41.4844 5.76117ZM19.7182 13.4634L20.1621 13.2331C20.0902 13.0946 19.9578 12.9975 19.804 12.9708C19.6503 12.944 19.4928 12.9906 19.3784 13.0966L19.7182 13.4634ZM13.4729 12.0566L13.9729 12.0549L13.9729 12.0547L13.4729 12.0566ZM35.7459 19.7415H35.2459C35.2459 19.8741 35.2986 20.0013 35.3924 20.0951C35.4861 20.1888 35.6133 20.2415 35.746 20.2415L35.7459 19.7415ZM37.9554 22.2408L38.4495 22.3181L38.4513 22.3046L37.9554 22.2408ZM36.8729 23.8309L36.6192 23.4001C36.6108 23.4051 36.6025 23.4103 36.5944 23.4157L36.8729 23.8309ZM35.0082 24.042L35.1867 23.575C35.0506 23.523 34.8987 23.5329 34.7705 23.6021C34.6424 23.6714 34.5508 23.7931 34.5197 23.9354L35.0082 24.042ZM26.7289 33.1495L26.8825 33.6253L26.8826 33.6253L26.7289 33.1495ZM26.3333 33.2772L26.1797 32.8014L26.1753 32.8028L26.3333 33.2772ZM22.5157 33.318L22.363 33.7941L22.3679 33.7957L22.5157 33.318ZM14.1794 24.0509L14.6692 23.9504C14.6398 23.8074 14.5495 23.6844 14.4218 23.6136C14.2941 23.5428 14.1419 23.5314 14.0051 23.5823L14.1794 24.0509ZM12.3013 23.7848L12.5992 23.3832C12.589 23.3757 12.5786 23.3686 12.568 23.3619L12.3013 23.7848ZM11.2474 22.0377L10.7477 22.0555C10.7479 22.0622 10.7483 22.0688 10.7488 22.0755L11.2474 22.0377ZM13.4729 19.7415L13.473 20.2415C13.7491 20.2415 13.9729 20.0176 13.9729 19.7415H13.4729ZM30.4004 42.0175L30.2516 42.4949C30.4034 42.5422 30.5686 42.5145 30.6967 42.4202C30.8248 42.326 30.9004 42.1765 30.9004 42.0175H30.4004ZM30.4004 36.1862H30.9004C30.9004 36.0358 30.8326 35.8933 30.7159 35.7984C30.5992 35.7034 30.446 35.6661 30.2987 35.6967L30.4004 36.1862ZM17.9275 42.0175H17.4275C17.4275 42.1765 17.5031 42.326 17.6312 42.4202C17.7592 42.5145 17.9245 42.5422 18.0763 42.4949L17.9275 42.0175ZM17.9275 36.1862L18.0292 35.6967C17.8819 35.6661 17.7286 35.7034 17.6119 35.7984C17.4952 35.8933 17.4275 36.0358 17.4275 36.1862H17.9275ZM21.4912 43.631C21.215 43.631 20.9912 43.8548 20.9912 44.131C20.9912 44.4071 21.215 44.631 21.4912 44.631V43.631ZM26.8367 44.631C27.1128 44.631 27.3367 44.4071 27.3367 44.131C27.3367 43.8548 27.1128 43.631 26.8367 43.631V44.631ZM21.4912 46.2916C21.215 46.2916 20.9912 46.5155 20.9912 46.7916C20.9912 47.0678 21.215 47.2916 21.4912 47.2916V46.2916ZM26.8367 47.2916C27.1128 47.2916 27.3367 47.0678 27.3367 46.7916C27.3367 46.5155 27.1128 46.2916 26.8367 46.2916V47.2916ZM31.5141 21.5195C31.7613 21.3964 31.862 21.0963 31.7389 20.8491C31.6159 20.6018 31.3157 20.5012 31.0685 20.6242L31.5141 21.5195ZM29.2867 21.5111C29.0394 21.6342 28.9388 21.9343 29.0618 22.1815C29.1849 22.4288 29.485 22.5294 29.7322 22.4064L29.2867 21.5111ZM19.4865 22.4064C19.7337 22.5294 20.0339 22.4288 20.1569 22.1815C20.28 21.9343 20.1793 21.6342 19.9321 21.5111L19.4865 22.4064ZM18.1503 20.6242C17.9031 20.5012 17.6029 20.6018 17.4799 20.8491C17.3568 21.0963 17.4575 21.3964 17.7047 21.5195L18.1503 20.6242ZM4.9546 7.32536C4.9546 8.27162 4.1834 9.04258 3.2273 9.04258V10.0426C4.73141 10.0426 5.9546 8.82818 5.9546 7.32536H4.9546ZM3.2273 9.04258C2.2712 9.04258 1.5 8.27162 1.5 7.32536H0.5C0.5 8.82818 1.72319 10.0426 3.2273 10.0426V9.04258ZM1.5 7.32536C1.5 6.3791 2.2712 5.60814 3.2273 5.60814V4.60814C1.72319 4.60814 0.5 5.82255 0.5 7.32536H1.5ZM3.2273 5.60814C4.1834 5.60814 4.9546 6.3791 4.9546 7.32536H5.9546C5.9546 5.82255 4.73141 4.60814 3.2273 4.60814V5.60814ZM46.5 34.8188C46.5 35.095 46.2745 35.3228 45.9915 35.3228V36.3228C46.8225 36.3228 47.5 35.6516 47.5 34.8188H46.5ZM45.9915 35.3228C45.7085 35.3228 45.483 35.095 45.483 34.8188H44.483C44.483 35.6516 45.1605 36.3228 45.9915 36.3228V35.3228ZM45.483 34.8188C45.483 34.5427 45.7085 34.3149 45.9915 34.3149V33.3149C45.1605 33.3149 44.483 33.9861 44.483 34.8188H45.483ZM45.9915 34.3149C46.2745 34.3149 46.5 34.5426 46.5 34.8188H47.5C47.5 33.9861 46.8225 33.3149 45.9915 33.3149V34.3149ZM10.8632 2.00396C10.8632 2.28015 10.6377 2.50792 10.3547 2.50792V3.50792C11.1857 3.50792 11.8632 2.83671 11.8632 2.00396H10.8632ZM10.3547 2.50792C10.0717 2.50792 9.84615 2.28015 9.84615 2.00396H8.84615C8.84615 2.83671 9.52367 3.50792 10.3547 3.50792V2.50792ZM9.84615 2.00396C9.84615 1.72777 10.0717 1.5 10.3547 1.5V0.5C9.52367 0.5 8.84615 1.17121 8.84615 2.00396H9.84615ZM10.3547 1.5C10.6377 1.5 10.8632 1.72777 10.8632 2.00396H11.8632C11.8632 1.17121 11.1857 0.5 10.3547 0.5V1.5ZM9.08135 14.4204C9.08135 14.6966 8.85582 14.9244 8.57283 14.9244V15.9244C9.40382 15.9244 10.0813 15.2531 10.0813 14.4204H9.08135ZM8.57283 14.9244C8.28984 14.9244 8.0643 14.6966 8.0643 14.4204H7.0643C7.0643 15.2532 7.74183 15.9244 8.57283 15.9244V14.9244ZM8.0643 14.4204C8.0643 14.1442 8.28984 13.9164 8.57283 13.9164V12.9164C7.74183 12.9164 7.0643 13.5877 7.0643 14.4204H8.0643ZM8.57283 13.9164C8.85582 13.9164 9.08135 14.1442 9.08135 14.4204H10.0813C10.0813 13.5877 9.40382 12.9164 8.57283 12.9164V13.9164ZM27.8113 35.1524L35.7752 38.566L36.1692 37.6469L28.2052 34.2333L27.8113 35.1524ZM35.7796 38.5679C37.1963 39.1592 38.4072 40.1512 39.2624 41.4207L40.0917 40.862C39.127 39.4299 37.7615 38.3115 36.1648 37.6451L35.7796 38.5679ZM39.2624 41.4207C40.1176 42.6901 40.5796 44.1812 40.5914 45.7092L41.5914 45.7015C41.578 43.9768 41.0565 42.2941 40.0917 40.862L39.2624 41.4207ZM40.5914 45.7053V53H41.5914V45.7053H40.5914ZM41.0914 52.5H7.23645V53.5H41.0914V52.5ZM7.73645 53V45.7053H6.73645V53H7.73645ZM7.73643 45.7092C7.74827 44.1812 8.21029 42.6901 9.06548 41.4207L8.23612 40.862C7.27135 42.2941 6.74982 43.9768 6.73646 45.7015L7.73643 45.7092ZM9.06548 41.4207C9.92069 40.1512 11.1316 39.1592 12.5483 38.5679L12.1631 37.6451C10.5664 38.3115 9.20088 39.4299 8.23612 40.862L9.06548 41.4207ZM12.5527 38.566L20.7973 35.0318L20.4032 34.1127L12.1587 37.6469L12.5527 38.566ZM21.2938 36.3282C21.166 35.9871 21.1004 35.6259 21.1003 35.2619L20.1003 35.2623C20.1005 35.7461 20.1876 36.226 20.3575 36.6792L21.2938 36.3282ZM21.1003 35.2621V33.0449H20.1003V35.2621H21.1003ZM27.2276 33.0449V35.2621H28.2276V33.0449H27.2276ZM27.2276 35.2625C27.2279 35.6277 27.1622 35.9899 27.0334 36.332L27.9692 36.6843C28.1405 36.2295 28.2281 35.7475 28.2276 35.2616L27.2276 35.2625ZM14.8638 52.113V46.7916H13.8638V52.113H14.8638ZM34.4641 52.113V46.7916H33.4641V52.113H34.4641ZM41.4844 1.79403L38.2111 5.05246L38.9166 5.76117L42.1899 2.50274L41.4844 1.79403ZM38.2111 2.50274L41.4844 5.76117L42.1899 5.05246L38.9166 1.79403L38.2111 2.50274ZM13.4614 16.1796C14.6634 16.2545 15.8683 16.0849 17.0024 15.681L16.6669 14.7389C15.6603 15.0975 14.5907 15.2481 13.5236 15.1816L13.4614 16.1796ZM17.0024 15.681C18.1365 15.2771 19.1763 14.6474 20.0581 13.8301L19.3784 13.0966C18.5961 13.8216 17.6735 14.3804 16.6669 14.7389L17.0024 15.681ZM19.2744 13.6936C22.0317 19.0081 29.6447 21.09 36.0524 16.1191L35.4394 15.329C29.4704 19.9596 22.6007 17.9334 20.1621 13.2331L19.2744 13.6936ZM13.9729 12.0547C13.9612 8.92784 15.2693 6.72123 17.2283 5.28283C19.2061 3.83065 21.8786 3.1417 24.5894 3.1506C27.2995 3.15949 29.9917 3.86614 31.9902 5.13924C33.983 6.40868 35.2459 8.20831 35.2459 10.4292H36.2459C36.2459 7.77214 34.7186 5.69163 32.5275 4.29583C30.3421 2.90369 27.4569 2.16 24.5927 2.1506C21.729 2.1412 18.8302 2.86601 16.6365 4.47678C14.4239 6.10134 12.96 8.60687 12.9729 12.0585L13.9729 12.0547ZM35.2459 10.4292V19.7415H36.2459V10.4292H35.2459ZM35.746 20.2415C35.9917 20.2415 36.2346 20.2936 36.4584 20.3943L36.8687 19.4823C36.5157 19.3235 36.133 19.2415 35.7458 19.2415L35.746 20.2415ZM36.4584 20.3943C36.6821 20.4949 36.8816 20.6419 37.0436 20.8251L37.7928 20.1627C37.5367 19.873 37.2216 19.6411 36.8687 19.4823L36.4584 20.3943ZM37.0436 20.8251C37.2056 21.0083 37.3263 21.2236 37.398 21.4567L38.3538 21.1627C38.2402 20.7933 38.0489 20.4525 37.7928 20.1627L37.0436 20.8251ZM37.398 21.4567C37.4697 21.6897 37.4906 21.9352 37.4595 22.1769L38.4513 22.3046C38.5006 21.9214 38.4674 21.5321 38.3538 21.1627L37.398 21.4567ZM37.4614 22.1634C37.4215 22.4184 37.3254 22.6614 37.1799 22.8753L38.0065 23.438C38.2353 23.1019 38.3865 22.7195 38.4494 22.3181L37.4614 22.1634ZM37.1799 22.8753C37.0343 23.0891 36.8429 23.2684 36.6192 23.4001L37.1266 24.2618C37.4772 24.0553 37.7777 23.774 38.0065 23.438L37.1799 22.8753ZM36.5944 23.4157C36.39 23.5528 36.1554 23.6389 35.9103 23.6667L36.0227 24.6603C36.4268 24.6146 36.8139 24.4726 37.1514 24.2462L36.5944 23.4157ZM35.9103 23.6667C35.6651 23.6944 35.4169 23.6629 35.1867 23.575L34.8297 24.5091C35.2095 24.6542 35.6187 24.706 36.0227 24.6603L35.9103 23.6667ZM34.5197 23.9354C34.0786 25.9556 33.1131 27.8257 31.7192 29.359L32.4591 30.0317C33.9707 28.3689 35.0181 26.3405 35.4967 24.1487L34.5197 23.9354ZM31.7192 29.359C30.3253 30.8923 28.5517 32.0353 26.5752 32.6737L26.8826 33.6253C29.0248 32.9334 30.9476 31.6944 32.4591 30.0317L31.7192 29.359ZM26.5753 32.6737L26.1797 32.8014L26.4869 33.753L26.8825 33.6253L26.5753 32.6737ZM26.1753 32.8028C25.0377 33.1817 23.8091 33.1948 22.6635 32.8403L22.3679 33.7957C23.713 34.2119 25.1555 34.1964 26.4913 33.7516L26.1753 32.8028ZM22.6684 32.8419C20.6624 32.1986 18.8645 31.036 17.459 29.4735L16.7155 30.1423C18.2397 31.8367 20.1889 33.0969 22.3631 33.7941L22.6684 32.8419ZM17.459 29.4735C16.0534 27.9111 15.0907 26.0049 14.6692 23.9504L13.6896 24.1514C14.1469 26.3803 15.1913 28.4479 16.7155 30.1423L17.459 29.4735ZM14.0051 23.5823C13.7727 23.6687 13.5222 23.6958 13.2764 23.661L13.1362 24.6511C13.5466 24.7092 13.9652 24.664 14.3537 24.5195L14.0051 23.5823ZM13.2764 23.661C13.0307 23.6261 12.7979 23.5306 12.5992 23.3832L12.0035 24.1864C12.3363 24.4332 12.7257 24.5929 13.1362 24.6511L13.2764 23.661ZM12.568 23.3619C12.3335 23.214 12.1371 23.0138 11.9945 22.7773L11.1382 23.2938C11.3616 23.6641 11.6686 23.977 12.0347 24.2078L12.568 23.3619ZM11.9945 22.7773C11.8518 22.5408 11.7668 22.2746 11.7459 21.9998L10.7488 22.0755C10.7815 22.5064 10.9149 22.9236 11.1382 23.2938L11.9945 22.7773ZM11.747 22.0198C11.7388 21.7896 11.7772 21.5601 11.8601 21.3449L10.9268 20.9857C10.7956 21.3266 10.7346 21.6905 10.7477 22.0555L11.747 22.0198ZM11.8601 21.3449C11.9429 21.1298 12.0685 20.9333 12.2294 20.7672L11.5114 20.0712C11.2569 20.3337 11.0581 20.6447 10.9268 20.9857L11.8601 21.3449ZM12.2294 20.7672C12.3904 20.6011 12.5834 20.4689 12.7971 20.3785L12.4076 19.4575C12.0706 19.6 11.7658 19.8087 11.5114 20.0712L12.2294 20.7672ZM12.7971 20.3785C13.0108 20.2882 13.2407 20.2415 13.473 20.2415L13.4728 19.2415C13.1068 19.2416 12.7446 19.315 12.4076 19.4575L12.7971 20.3785ZM13.9729 19.7415C13.9729 19.7431 13.9773 13.334 13.9729 12.0549L12.9729 12.0584C12.9773 13.3352 12.9729 19.7399 12.9729 19.7415H13.9729ZM23.6639 37.482V40.0734H24.6639V37.482H23.6639ZM24.0151 40.5508L30.2516 42.4949L30.5492 41.5402L24.3127 39.5961L24.0151 40.5508ZM30.9004 42.0175V36.1862H29.9004V42.0175H30.9004ZM30.2987 35.6967L24.0622 36.9924L24.2656 37.9715L30.5021 36.6758L30.2987 35.6967ZM24.0151 39.5961L17.7787 41.5402L18.0763 42.4949L24.3127 40.5508L24.0151 39.5961ZM18.4275 42.0175V36.1862H17.4275V42.0175H18.4275ZM17.8258 36.6758L24.0622 37.9715L24.2656 36.9924L18.0292 35.6967L17.8258 36.6758ZM21.4912 44.631H26.8367V43.631H21.4912V44.631ZM21.4912 47.2916H26.8367V46.2916H21.4912V47.2916ZM31.0685 20.6242L29.2867 21.5111L29.7322 22.4064L31.5141 21.5195L31.0685 20.6242ZM19.9321 21.5111L18.1503 20.6242L17.7047 21.5195L19.4865 22.4064L19.9321 21.5111ZM19.7093 24.2328H20.6002V23.2328H19.7093V24.2328ZM20.6002 24.2328C20.8183 24.2328 20.9912 24.4082 20.9912 24.6197H21.9912C21.9912 23.8516 21.3663 23.2328 20.6002 23.2328V24.2328ZM20.9912 24.6197C20.9912 24.8312 20.8183 25.0066 20.6002 25.0066V26.0066C21.3663 26.0066 21.9912 25.3878 21.9912 24.6197H20.9912ZM20.6002 25.0066H19.7093V26.0066H20.6002V25.0066ZM19.7093 25.0066C19.4913 25.0066 19.3184 24.8312 19.3184 24.6197H18.3184C18.3184 25.3878 18.9433 26.0066 19.7093 26.0066V25.0066ZM19.3184 24.6197C19.3184 24.4082 19.4913 24.2328 19.7093 24.2328V23.2328C18.9433 23.2328 18.3184 23.8516 18.3184 24.6197H19.3184ZM28.6185 24.2328H29.5095V23.2328H28.6185V24.2328ZM29.5095 24.2328C29.7275 24.2328 29.9004 24.4082 29.9004 24.6197H30.9004C30.9004 23.8516 30.2755 23.2328 29.5095 23.2328V24.2328ZM29.9004 24.6197C29.9004 24.8312 29.7275 25.0066 29.5095 25.0066V26.0066C30.2755 26.0066 30.9004 25.3878 30.9004 24.6197H29.9004ZM29.5095 25.0066H28.6185V26.0066H29.5095V25.0066ZM28.6185 25.0066C28.4005 25.0066 28.2276 24.8312 28.2276 24.6197H27.2276C27.2276 25.3878 27.8525 26.0066 28.6185 26.0066V25.0066ZM28.2276 24.6197C28.2276 24.4082 28.4005 24.2328 28.6185 24.2328V23.2328C27.8525 23.2328 27.2276 23.8516 27.2276 24.6197H28.2276ZM14.3638 50.8395H33.9641V49.8395H14.3638V50.8395Z" fill="white"/>
</svg>
