<svg width="42" height="41" viewBox="0 0 42 41" fill="none" xmlns="http://www.w3.org/2000/svg">
<path d="M37.2871 32.5396C37.0213 32.4645 36.745 32.619 36.6699 32.8848C36.5948 33.1505 36.7493 33.4268 37.015 33.5019L37.2871 32.5396ZM6.20633 33.19C6.47539 33.1279 6.64312 32.8594 6.58096 32.5903C6.51881 32.3213 6.25031 32.1535 5.98125 32.2157L6.20633 33.19ZM18.7414 5.11656C18.7414 4.84042 18.5175 4.61656 18.2414 4.61656C17.9652 4.61656 17.7414 4.84042 17.7414 5.11656H18.7414ZM17.7414 6.49587C17.7414 6.77202 17.9652 6.99587 18.2414 6.99587C18.5175 6.99587 18.7414 6.77202 18.7414 6.49587H17.7414ZM18.7414 9.25455C18.7414 8.97841 18.5175 8.75455 18.2414 8.75455C17.9652 8.75455 17.7414 8.97841 17.7414 9.25455H18.7414ZM17.7414 10.6339C17.7414 10.91 17.9652 11.1339 18.2414 11.1339C18.5175 11.1339 18.7414 10.91 18.7414 10.6339H17.7414ZM15.4828 7.37515C15.2066 7.37515 14.9828 7.59901 14.9828 7.87515C14.9828 8.15129 15.2066 8.37515 15.4828 8.37515V7.37515ZM16.8621 8.37515C17.1382 8.37515 17.3621 8.15129 17.3621 7.87515C17.3621 7.59901 17.1382 7.37515 16.8621 7.37515V8.37515ZM19.6207 7.37515C19.3445 7.37515 19.1207 7.59901 19.1207 7.87515C19.1207 8.15129 19.3445 8.37515 19.6207 8.37515V7.37515ZM21 8.37515C21.2761 8.37515 21.5 8.15129 21.5 7.87515C21.5 7.59901 21.2761 7.37515 21 7.37515V8.37515ZM9.03517 1.73724H8.53517H9.03517ZM33.8628 2.42694H33.3628H33.8628ZM24.2798 25.8593C24.514 26.0056 24.8225 25.9344 24.9688 25.7002C25.1152 25.466 25.044 25.1576 24.8098 25.0112L24.2798 25.8593ZM19.6207 22.358L19.8857 21.934C19.6704 21.7995 19.3886 21.8476 19.2301 22.0458L19.6207 22.358ZM12.4418 30.5396C12.2694 30.7554 12.3045 31.07 12.5203 31.2424C12.736 31.4148 13.0506 31.3797 13.223 31.164L12.4418 30.5396ZM32.1201 14.7705C32.3152 14.575 32.3149 14.2584 32.1194 14.0633C31.924 13.8683 31.6074 13.8686 31.4123 14.064L32.1201 14.7705ZM31.211 16.6393L30.764 16.8633C30.7729 16.8809 30.7827 16.898 30.7935 16.9144L31.211 16.6393ZM31.6275 18.0279H31.1275H31.6275ZM30.7935 19.1414C30.6416 19.372 30.7053 19.6821 30.9359 19.834C31.1665 19.986 31.4766 19.9223 31.6285 19.6917L30.7935 19.1414ZM7.91517 24.7717C7.91517 24.4956 7.69131 24.2717 7.41517 24.2717C7.13903 24.2717 6.91517 24.4956 6.91517 24.7717H7.91517ZM6.91517 30.6317C6.91517 30.9079 7.13903 31.1317 7.41517 31.1317C7.69131 31.1317 7.91517 30.9079 7.91517 30.6317H6.91517ZM1.55586 16.2979L2.02698 16.4656L2.03006 16.4564L1.55586 16.2979ZM6.8331 24.5207L6.78935 25.0189L6.8 25.0196L6.8331 24.5207ZM7.2731 24.5351L7.27398 24.0351H7.2731V24.5351ZM9.77655 24.0469L9.9653 24.51L9.9747 24.5059L9.77655 24.0469ZM13.2441 16.7062L12.7611 16.8358L12.7637 16.8447L13.2441 16.7062ZM11.86 11.5476L12.3429 11.418C12.2843 11.1995 12.0862 11.0476 11.86 11.0476V11.5476ZM3.14414 11.5476V11.0476C2.92909 11.0476 2.73813 11.1851 2.66994 11.389L3.14414 11.5476ZM8.19034 18.5717L8.44225 19.0036C8.44694 19.0009 8.45158 18.9981 8.45617 18.9952L8.19034 18.5717ZM24.8984 14.7708C25.0936 14.5755 25.0936 14.2589 24.8984 14.0637C24.7031 13.8684 24.3865 13.8684 24.1913 14.0637L24.8984 14.7708ZM23.9931 16.6393L23.5465 16.8641C23.5552 16.8814 23.5649 16.8982 23.5756 16.9144L23.9931 16.6393ZM24.4095 18.0279H23.9095H24.4095ZM23.5756 19.1414C23.4237 19.372 23.4874 19.6821 23.718 19.834C23.9485 19.986 24.2586 19.9223 24.4106 19.6917L23.5756 19.1414ZM28.2314 12.5494C28.4267 12.3542 28.4268 12.0377 28.2316 11.8423C28.0364 11.647 27.7198 11.6469 27.5245 11.8421L28.2314 12.5494ZM27.3221 14.4172L26.8748 14.6407C26.8837 14.6585 26.8937 14.6759 26.9047 14.6925L27.3221 14.4172ZM26.9047 16.9197C26.7527 17.1502 26.8162 17.4604 27.0467 17.6124C27.2772 17.7645 27.5873 17.701 27.7394 17.4705L26.9047 16.9197ZM10.7146 35.8581C10.9878 35.8984 11.2419 35.7096 11.2822 35.4364C11.3225 35.1633 11.1338 34.9091 10.8606 34.8688L10.7146 35.8581ZM10.2786 35.2724L10.3812 34.7831L10.3808 34.783L10.2786 35.2724ZM11.2959 30.4055L11.1936 30.8951L11.206 30.8974L11.2959 30.4055ZM14.2069 32.3114C14.4181 32.4893 14.7335 32.4623 14.9114 32.2511C15.0893 32.0399 15.0623 31.7245 14.8511 31.5466L14.2069 32.3114ZM17.417 37.7381C17.6905 37.7001 17.8815 37.4476 17.8435 37.1741C17.8056 36.9006 17.5531 36.7096 17.2795 36.7476L17.417 37.7381ZM14.6297 37.1373L14.7366 36.6489L14.732 36.6479L14.6297 37.1373ZM15.6462 32.2704L15.5439 32.7598L15.545 32.7601L15.6462 32.2704ZM16.6886 33.0877C16.9476 33.1834 17.2353 33.0511 17.331 32.7921C17.4268 32.5331 17.2945 32.2455 17.0355 32.1497L16.6886 33.0877ZM24.051 36.2785L24.5405 36.3808L24.5405 36.3808L24.051 36.2785ZM21.8793 33.7925C21.8793 34.0686 22.1032 34.2925 22.3793 34.2925C22.6554 34.2925 22.8793 34.0686 22.8793 33.7925H21.8793ZM22.3793 27.8752L22.0258 27.5217C21.932 27.6154 21.8793 27.7426 21.8793 27.8752H22.3793ZM26.5172 23.7373L26.7029 23.273C26.5172 23.1988 26.3051 23.2423 26.1637 23.3837L26.5172 23.7373ZM36.8621 27.8752H37.3621C37.3621 27.6708 37.2376 27.4869 37.0478 27.411L36.8621 27.8752ZM36.8621 35.4614V35.9614C37.1382 35.9614 37.3621 35.7376 37.3621 35.4614H36.8621ZM24.189 34.9614C23.9128 34.9614 23.689 35.1853 23.689 35.4614C23.689 35.7376 23.9128 35.9614 24.189 35.9614V34.9614ZM28.5862 27.8753H29.0862C29.0862 27.5991 28.8623 27.3753 28.5862 27.3753L28.5862 27.8753ZM31.1552 29.5994C31.1552 29.3233 30.9313 29.0994 30.6552 29.0994C30.379 29.0994 30.1552 29.3233 30.1552 29.5994H31.1552ZM32.7241 27.8753L32.7241 27.3753C32.448 27.3753 32.2241 27.5991 32.2241 27.8753H32.7241ZM37.015 33.5019C38.206 33.8386 39.1169 34.2052 39.7189 34.5798C40.3499 34.9725 40.5 35.2816 40.5 35.4615H41.5C41.5 34.7283 40.9356 34.1591 40.2472 33.7307C39.5297 33.2843 38.516 32.8871 37.2871 32.5396L37.015 33.5019ZM40.5 35.4615C40.5 35.5716 40.4483 35.7314 40.2382 35.9439C40.0265 36.1579 39.6883 36.3884 39.2086 36.6231C38.2511 37.0914 36.8334 37.527 35.0408 37.8979C31.4638 38.6379 26.4993 39.0994 21 39.0994V40.0994C26.5462 40.0994 31.5818 39.6347 35.2434 38.8771C37.0701 38.4992 38.5813 38.0432 39.648 37.5214C40.1803 37.261 40.628 36.9718 40.9492 36.6471C41.2718 36.3208 41.5 35.9227 41.5 35.4615H40.5ZM21 39.0994C15.5007 39.0994 10.5362 38.6379 6.95923 37.8979C5.16661 37.527 3.74888 37.0914 2.79143 36.6231C2.31167 36.3884 1.97352 36.1579 1.76184 35.9439C1.55168 35.7314 1.5 35.5716 1.5 35.4615H0.5C0.5 35.9227 0.728152 36.3208 1.05083 36.6471C1.372 36.9718 1.8197 37.261 2.35202 37.5214C3.4187 38.0432 4.92994 38.4992 6.75663 38.8771C10.4182 39.6347 15.4538 40.0994 21 40.0994V39.0994ZM1.5 35.4615C1.5 35.3589 1.54438 35.2147 1.71914 35.0239C1.89641 34.8304 2.18215 34.619 2.59344 34.4007C3.41506 33.9647 4.64009 33.5518 6.20633 33.19L5.98125 32.2157C4.37991 32.5856 3.05805 33.0221 2.12466 33.5174C1.65845 33.7648 1.26467 34.0396 0.981785 34.3484C0.6964 34.6599 0.5 35.0341 0.5 35.4615H1.5ZM17.7414 5.11656V6.49587H18.7414V5.11656H17.7414ZM17.7414 9.25455V10.6339H18.7414V9.25455H17.7414ZM15.4828 8.37515H16.8621V7.37515H15.4828V8.37515ZM19.6207 8.37515H21V7.37515H19.6207V8.37515ZM39.1207 10.9787C39.1207 11.6548 38.5726 12.2028 37.8965 12.2028V13.2028C39.1249 13.2028 40.1207 12.207 40.1207 10.9787H39.1207ZM37.8965 12.2028C37.2205 12.2028 36.6724 11.6548 36.6724 10.9787H35.6724C35.6724 12.207 36.6682 13.2028 37.8965 13.2028V12.2028ZM36.6724 10.9787C36.6724 10.3026 37.2205 9.75455 37.8965 9.75455V8.75455C36.6682 8.75455 35.6724 9.75033 35.6724 10.9787H36.6724ZM37.8965 9.75455C38.5726 9.75455 39.1207 10.3026 39.1207 10.9787H40.1207C40.1207 9.75033 39.1249 8.75455 37.8965 8.75455V9.75455ZM8.53517 1.73724C8.53517 1.78416 8.52126 1.83003 8.49519 1.86905L9.32666 2.42462C9.46261 2.22115 9.53517 1.98194 9.53517 1.73724H8.53517ZM8.49519 1.86905C8.46912 1.90806 8.43207 1.93847 8.38872 1.95642L8.7714 2.8803C8.99748 2.78666 9.19071 2.62808 9.32666 2.42462L8.49519 1.86905ZM8.38872 1.95642C8.34537 1.97438 8.29767 1.97908 8.25165 1.96992L8.05656 2.95071C8.29656 2.99845 8.54533 2.97395 8.7714 2.8803L8.38872 1.95642ZM8.25165 1.96992C8.20563 1.96077 8.16336 1.93818 8.13018 1.905L7.42307 2.6121C7.5961 2.78513 7.81656 2.90297 8.05656 2.95071L8.25165 1.96992ZM8.13018 1.905C8.097 1.87182 8.0744 1.82955 8.06525 1.78352L7.08446 1.97862C7.1322 2.21862 7.25004 2.43907 7.42307 2.6121L8.13018 1.905ZM8.06525 1.78352C8.05609 1.7375 8.06079 1.6898 8.07875 1.64645L7.15487 1.26377C7.06123 1.48985 7.03672 1.73861 7.08446 1.97862L8.06525 1.78352ZM8.07875 1.64645C8.09671 1.6031 8.12711 1.56605 8.16613 1.53998L7.61056 0.708513C7.40709 0.844463 7.24851 1.03769 7.15487 1.26377L8.07875 1.64645ZM8.16613 1.53998C8.20514 1.51391 8.25101 1.5 8.29793 1.5V0.5C8.05323 0.5 7.81402 0.572562 7.61056 0.708513L8.16613 1.53998ZM8.29793 1.5C8.36085 1.5 8.4212 1.525 8.46569 1.56949L9.17279 0.86238C8.94077 0.630351 8.62607 0.5 8.29793 0.5V1.5ZM8.46569 1.56949C8.51018 1.61398 8.53517 1.67432 8.53517 1.73724H9.53517C9.53517 1.4091 9.40482 1.09441 9.17279 0.86238L8.46569 1.56949ZM33.3628 2.42694C33.3628 2.47386 33.3488 2.51973 33.3228 2.55875L34.1542 3.11432C34.2902 2.91085 34.3628 2.67165 34.3628 2.42694H33.3628ZM33.3228 2.55875C33.2967 2.59776 33.2597 2.62817 33.2163 2.64612L33.599 3.57C33.8251 3.47636 34.0183 3.31778 34.1542 3.11432L33.3228 2.55875ZM33.2163 2.64612C33.173 2.66408 33.1253 2.66878 33.0792 2.65962L32.8841 3.64041C33.1241 3.68815 33.3729 3.66365 33.599 3.57L33.2163 2.64612ZM33.0792 2.65962C33.0332 2.65047 32.9909 2.62788 32.9578 2.5947L32.2507 3.3018C32.4237 3.47483 32.6441 3.59267 32.8841 3.64041L33.0792 2.65962ZM32.9578 2.5947C32.9246 2.56151 32.902 2.51924 32.8928 2.47323L31.912 2.66832C31.9598 2.90832 32.0776 3.12877 32.2507 3.3018L32.9578 2.5947ZM32.8928 2.47323C32.8837 2.42721 32.8884 2.37951 32.9063 2.33615L31.9825 1.95347C31.8888 2.17954 31.8643 2.42831 31.912 2.66832L32.8928 2.47323ZM32.9063 2.33615C32.9243 2.2928 32.9547 2.25575 32.9937 2.22968L32.4381 1.39821C32.2347 1.53416 32.0761 1.72739 31.9825 1.95347L32.9063 2.33615ZM32.9937 2.22968C33.0327 2.20361 33.0786 2.1897 33.1255 2.1897V1.1897C32.8808 1.1897 32.6416 1.26226 32.4381 1.39821L32.9937 2.22968ZM33.1255 2.1897C33.1884 2.1897 33.2488 2.2147 33.2933 2.25919L34.0004 1.55208C33.7683 1.32005 33.4537 1.1897 33.1255 1.1897V2.1897ZM33.2933 2.25919C33.3378 2.30368 33.3628 2.36402 33.3628 2.42694H34.3628C34.3628 2.0988 34.2324 1.78411 34.0004 1.55208L33.2933 2.25919ZM24.8098 25.0112L19.8857 21.934L19.3557 22.782L24.2798 25.8593L24.8098 25.0112ZM19.2301 22.0458L12.4418 30.5396L13.223 31.164L20.0113 22.6702L19.2301 22.0458ZM20.5 26.8408C20.5 27.136 20.2607 27.3753 19.9655 27.3753V28.3753C20.813 28.3753 21.5 27.6882 21.5 26.8408H20.5ZM19.9655 27.3753C19.6703 27.3753 19.431 27.136 19.431 26.8408H18.431C18.431 27.6882 19.118 28.3753 19.9655 28.3753V27.3753ZM19.431 26.8408C19.431 26.5456 19.6703 26.3063 19.9655 26.3063V25.3063C19.118 25.3063 18.431 25.9933 18.431 26.8408H19.431ZM19.9655 26.3063C20.2607 26.3063 20.5 26.5456 20.5 26.8408H21.5C21.5 25.9933 20.813 25.3063 19.9655 25.3063V26.3063ZM20.029 30.289C20.029 30.324 20.0006 30.3524 19.9655 30.3524V31.3524C20.5528 31.3524 21.029 30.8763 21.029 30.289H20.029ZM19.9655 30.3524C19.9305 30.3524 19.9021 30.324 19.9021 30.289H18.9021C18.9021 30.8763 19.3782 31.3524 19.9655 31.3524V30.3524ZM19.9021 30.289C19.9021 30.2539 19.9305 30.2255 19.9655 30.2255V29.2255C19.3782 29.2255 18.9021 29.7016 18.9021 30.289H19.9021ZM19.9655 30.2255C20.0006 30.2255 20.029 30.2539 20.029 30.289H21.029C21.029 29.7016 20.5528 29.2255 19.9655 29.2255V30.2255ZM17.8152 28.9098C17.8152 28.8648 17.8516 28.8284 17.8966 28.8284V29.8284C18.4039 29.8284 18.8152 29.4171 18.8152 28.9098H17.8152ZM17.8966 28.8284C17.9415 28.8284 17.9779 28.8648 17.9779 28.9098H16.9779C16.9779 29.4171 17.3892 29.8284 17.8966 29.8284V28.8284ZM17.9779 28.9098C17.9779 28.9547 17.9415 28.9912 17.8966 28.9912V27.9912C17.3892 27.9912 16.9779 28.4024 16.9779 28.9098H17.9779ZM17.8966 28.9912C17.8516 28.9912 17.8152 28.9547 17.8152 28.9098H18.8152C18.8152 28.4024 18.4039 27.9912 17.8966 27.9912V28.9912ZM31.7662 14.4172C31.4123 14.064 31.4122 14.0641 31.412 14.0643C31.412 14.0643 31.4119 14.0645 31.4118 14.0646C31.4115 14.0648 31.4113 14.065 31.4111 14.0652C31.4106 14.0657 31.41 14.0663 31.4094 14.0669C31.4082 14.0682 31.4067 14.0697 31.4049 14.0715C31.4014 14.0751 31.3969 14.0798 31.3913 14.0856C31.3804 14.0972 31.3655 14.1131 31.3476 14.133C31.3119 14.1728 31.2634 14.2292 31.2079 14.2998C31.098 14.44 30.956 14.6424 30.8329 14.8889C30.5909 15.3733 30.3855 16.1081 30.764 16.8633L31.658 16.4152C31.4807 16.0615 31.5529 15.6852 31.7275 15.3359C31.8126 15.1655 31.9137 15.0203 31.9947 14.9171C32.0347 14.8661 32.0686 14.8268 32.0915 14.8014C32.1028 14.7887 32.1114 14.7796 32.1164 14.7744C32.1189 14.7717 32.1205 14.7701 32.1211 14.7694C32.1215 14.7691 32.1215 14.769 32.1214 14.7692C32.1213 14.7692 32.1211 14.7694 32.1209 14.7696C32.1208 14.7697 32.1207 14.7698 32.1206 14.77C32.1205 14.7701 32.1204 14.7702 32.1203 14.7702C32.1202 14.7703 32.1201 14.7705 31.7662 14.4172ZM30.7935 16.9144C31.0114 17.2449 31.1275 17.6321 31.1275 18.0279H32.1275C32.1275 17.4365 31.954 16.858 31.6285 16.3642L30.7935 16.9144ZM31.1275 18.0279C31.1275 18.4237 31.0114 18.8109 30.7935 19.1414L31.6285 19.6917C31.954 19.1978 32.1275 18.6194 32.1275 18.0279H31.1275ZM6.91517 24.7717V30.6317H7.91517V24.7717H6.91517ZM1.08483 16.1302C0.742784 17.0909 0.625392 18.1171 0.74166 19.1302L1.73514 19.0162C1.63629 18.1549 1.73609 17.2824 2.0269 16.4656L1.08483 16.1302ZM0.74166 19.1302C0.857929 20.1433 1.20477 21.1163 1.75555 21.9745L2.59714 21.4344C2.12887 20.7048 1.83399 19.8776 1.73514 19.0162L0.74166 19.1302ZM1.75555 21.9745C2.30634 22.8328 3.04643 23.5534 3.91903 24.0811L4.43651 23.2254C3.69464 22.7767 3.06542 22.1641 2.59714 21.4344L1.75555 21.9745ZM3.91903 24.0811C4.79162 24.6088 5.77352 24.9295 6.78936 25.0187L6.87684 24.0226C6.01318 23.9467 5.17838 23.674 4.43651 23.2254L3.91903 24.0811ZM6.8 25.0196C6.95667 25.03 7.11391 25.0351 7.2731 25.0351V24.0351C7.13574 24.0351 7.00057 24.0307 6.8662 24.0218L6.8 25.0196ZM7.27222 25.0351C8.19551 25.0368 9.11026 24.8584 9.96526 24.5099L9.58784 23.5838C8.85322 23.8832 8.06727 24.0365 7.27398 24.0351L7.27222 25.0351ZM9.9747 24.5059C11.4585 23.8655 12.6579 22.706 13.3482 21.2447L12.444 20.8175C11.8576 22.0588 10.8388 23.0438 9.5784 23.5878L9.9747 24.5059ZM13.3482 21.2447C14.0385 19.7834 14.1723 18.1205 13.7246 16.5677L12.7637 16.8447C13.144 18.1638 13.0303 19.5763 12.444 20.8175L13.3482 21.2447ZM13.7271 16.5766L12.3429 11.418L11.3771 11.6771L12.7612 16.8357L13.7271 16.5766ZM11.86 11.0476H3.14414V12.0476H11.86V11.0476ZM2.66994 11.389L1.08166 16.1393L2.03006 16.4564L3.61833 11.7061L2.66994 11.389ZM13.0016 15.8603C11.2124 16.3869 9.50411 17.1567 7.92452 18.1482L8.45617 18.9952C9.95819 18.0523 11.5826 17.3203 13.2839 16.8196L13.0016 15.8603ZM7.93844 18.1398C5.01475 19.845 2.83785 19.3492 1.49265 18.6313L1.02183 19.5135C2.64629 20.3804 5.19353 20.8984 8.44225 19.0036L7.93844 18.1398ZM24.5448 14.4172C24.1913 14.0637 24.1911 14.0638 24.191 14.0639C24.191 14.064 24.1908 14.0641 24.1907 14.0642C24.1905 14.0645 24.1903 14.0647 24.19 14.0649C24.1895 14.0654 24.189 14.066 24.1884 14.0666C24.1871 14.0678 24.1856 14.0694 24.1839 14.0712C24.1803 14.0748 24.1758 14.0795 24.1703 14.0853C24.1592 14.0969 24.1444 14.1128 24.1265 14.1327C24.0907 14.1725 24.0422 14.2288 23.9867 14.2994C23.8767 14.4395 23.7348 14.6418 23.6118 14.8884C23.3699 15.3733 23.166 16.1082 23.5465 16.8641L24.4397 16.4145C24.2609 16.0594 24.3329 15.6832 24.5066 15.3348C24.5915 15.1648 24.6924 15.0199 24.7732 14.917C24.8132 14.8661 24.8471 14.8269 24.8699 14.8016C24.8812 14.7889 24.8897 14.7799 24.8947 14.7746C24.8972 14.772 24.8988 14.7704 24.8995 14.7697C24.8998 14.7694 24.8999 14.7693 24.8997 14.7695C24.8996 14.7696 24.8994 14.7697 24.8992 14.7699C24.8991 14.77 24.899 14.7702 24.8989 14.7703C24.8988 14.7704 24.8987 14.7705 24.8986 14.7705C24.8985 14.7707 24.8984 14.7708 24.5448 14.4172ZM23.5756 16.9144C23.7934 17.2449 23.9095 17.6321 23.9095 18.0279H24.9095C24.9095 17.4365 24.7361 16.858 24.4106 16.3642L23.5756 16.9144ZM23.9095 18.0279C23.9095 18.4237 23.7934 18.8109 23.5756 19.1414L24.4106 19.6917C24.7361 19.1978 24.9095 18.6194 24.9095 18.0279H23.9095ZM27.8779 12.1958C27.5245 11.8421 27.5244 11.8423 27.5242 11.8424C27.5242 11.8424 27.524 11.8426 27.5239 11.8427C27.5237 11.8429 27.5235 11.8431 27.5232 11.8434C27.5228 11.8439 27.5222 11.8444 27.5216 11.845C27.5204 11.8463 27.5189 11.8478 27.5171 11.8496C27.5136 11.8532 27.509 11.858 27.5035 11.8637C27.4925 11.8753 27.4777 11.8912 27.4597 11.9111C27.4239 11.9508 27.3754 12.0071 27.3199 12.0776C27.2099 12.2176 27.0679 12.4198 26.9447 12.6661C26.7024 13.1504 26.497 13.8847 26.8748 14.6407L27.7693 14.1937C27.5919 13.8386 27.6646 13.4622 27.839 13.1136C27.9241 12.9435 28.0251 12.7986 28.1061 12.6957C28.1461 12.6448 28.18 12.6056 28.2028 12.5803C28.2142 12.5676 28.2227 12.5586 28.2277 12.5533C28.2302 12.5507 28.2318 12.549 28.2324 12.5484C28.2328 12.5481 28.2328 12.548 28.2327 12.5482C28.2326 12.5482 28.2324 12.5484 28.2322 12.5486C28.2321 12.5487 28.232 12.5488 28.2318 12.549C28.2318 12.5491 28.2317 12.5492 28.2316 12.5492C28.2315 12.5493 28.2314 12.5494 27.8779 12.1958ZM26.9047 14.6925C27.1228 15.023 27.239 15.4102 27.239 15.8061H28.239C28.239 15.2144 28.0653 14.6357 27.7394 14.1418L26.9047 14.6925ZM27.239 15.8061C27.239 16.2021 27.1228 16.5893 26.9047 16.9197L27.7394 17.4705C28.0653 16.9766 28.239 16.3979 28.239 15.8061H27.239ZM10.8606 34.8688C10.7025 34.8455 10.5427 34.8169 10.3812 34.7831L10.176 35.7618C10.3566 35.7997 10.5361 35.8318 10.7146 35.8581L10.8606 34.8688ZM10.3808 34.783C9.18531 34.5333 8.18132 34.0526 7.52231 33.502C6.84462 32.9358 6.63003 32.3911 6.71427 31.9877L5.73539 31.7833C5.53893 32.7241 6.09159 33.6097 6.88115 34.2694C7.68938 34.9447 8.85262 35.4854 10.1764 35.7619L10.3808 34.783ZM6.71427 31.9877C6.79847 31.5845 7.21303 31.1715 8.0609 30.9241C8.88536 30.6836 9.99802 30.6452 11.1936 30.895L11.3981 29.9161C10.0744 29.6396 8.79188 29.6692 7.78082 29.9642C6.79318 30.2523 5.93188 30.8424 5.73539 31.7833L6.71427 31.9877ZM11.206 30.8974C12.3123 31.0995 13.3467 31.5869 14.2069 32.3114L14.8511 31.5466C13.8578 30.7099 12.6633 30.147 11.3857 29.9137L11.206 30.8974ZM17.2795 36.7476C16.4327 36.8651 15.5718 36.8317 14.7366 36.6489L14.5227 37.6258C15.4733 37.8338 16.4532 37.8719 17.417 37.7381L17.2795 36.7476ZM14.732 36.6479C13.5361 36.3979 12.5318 35.917 11.8727 35.3664C11.1949 34.8001 10.9804 34.2556 11.0646 33.8527L10.0857 33.6482C9.88924 34.5887 10.442 35.4742 11.2316 36.1338C12.0399 36.809 13.2033 37.3499 14.5273 37.6267L14.732 36.6479ZM11.0646 33.8527C11.1488 33.4498 11.5634 33.0366 12.4113 32.789C13.2358 32.5483 14.3484 32.5098 15.5439 32.7598L15.7486 31.781C14.4247 31.5041 13.1422 31.5339 12.1311 31.8291C11.1435 32.1174 10.2822 32.7077 10.0857 33.6482L11.0646 33.8527ZM15.545 32.7601C15.9339 32.8404 16.3162 32.9499 16.6886 33.0877L17.0355 32.1497C16.616 31.9946 16.1854 31.8713 15.7474 31.7808L15.545 32.7601ZM23.5616 36.1763C23.4774 36.5792 23.0629 36.9922 22.2149 37.2397C21.3904 37.4803 20.2778 37.5188 19.0822 37.2691L18.8778 38.248C20.2015 38.5245 21.484 38.4947 22.4951 38.1996C23.4826 37.9114 24.3439 37.3214 24.5405 36.3808L23.5616 36.1763ZM19.0822 37.2691C17.8867 37.0194 16.8825 36.5387 16.2233 35.9881C15.5454 35.4218 15.3307 34.8772 15.415 34.4739L14.4361 34.2694C14.2396 35.2103 14.7925 36.096 15.5822 36.7556C16.3906 37.4308 17.554 37.9715 18.8778 38.248L19.0822 37.2691ZM15.415 34.4739C15.4992 34.0706 15.9138 33.6574 16.7617 33.41C17.5862 33.1694 18.699 33.131 19.8949 33.3811L20.0996 32.4022C18.7755 32.1254 17.4927 32.155 16.4816 32.45C15.4938 32.7383 14.6326 33.3286 14.4361 34.2694L15.415 34.4739ZM19.8949 33.3811C21.0909 33.6311 22.0949 34.1118 22.7538 34.6623C23.4314 35.2284 23.6458 35.7729 23.5616 36.1763L24.5405 36.3808C24.7369 35.44 24.1845 34.5545 23.395 33.8949C22.5868 33.2197 21.4236 32.6791 20.0996 32.4022L19.8949 33.3811ZM22.8793 33.7925V27.8752H21.8793V33.7925H22.8793ZM22.7329 28.2288L26.8708 24.0908L26.1637 23.3837L22.0258 27.5217L22.7329 28.2288ZM26.3315 24.2015L36.6764 28.3395L37.0478 27.411L26.7029 23.273L26.3315 24.2015ZM36.3621 27.8752V35.4614H37.3621V27.8752H36.3621ZM36.8621 34.9614H24.189V35.9614H36.8621V34.9614ZM22.3793 28.3752L28.5862 28.3753L28.5862 27.3753L22.3793 27.3752L22.3793 28.3752ZM28.0862 27.8753V31.6684H29.0862V27.8753H28.0862ZM28.0862 31.6684C28.0862 32.0753 28.2479 32.4657 28.5356 32.7534L29.2427 32.0463C29.1425 31.9461 29.0862 31.8101 29.0862 31.6684H28.0862ZM28.5356 32.7534C28.8234 33.0412 29.2137 33.2029 29.6207 33.2029V32.2029C29.4789 32.2029 29.343 32.1465 29.2427 32.0463L28.5356 32.7534ZM29.6207 33.2029C30.0277 33.2029 30.418 33.0412 30.7057 32.7534L29.9986 32.0463C29.8984 32.1465 29.7624 32.2029 29.6207 32.2029V33.2029ZM30.7057 32.7534C30.9935 32.4656 31.1552 32.0753 31.1552 31.6684H30.1552C30.1552 31.8101 30.0989 31.9461 29.9986 32.0463L30.7057 32.7534ZM31.1552 31.6684V29.5994H30.1552V31.6684H31.1552ZM30.1552 29.5994C30.1552 30.0064 30.3168 30.3967 30.6046 30.6845L31.3117 29.9773C31.2115 29.8771 31.1552 29.7412 31.1552 29.5994H30.1552ZM30.6046 30.6845C30.8924 30.9722 31.2827 31.1339 31.6896 31.1339V30.1339C31.5479 30.1339 31.4119 30.0776 31.3117 29.9773L30.6046 30.6845ZM31.6896 31.1339C32.0966 31.1339 32.4869 30.9722 32.7747 30.6845L32.0676 29.9773C31.9674 30.0776 31.8314 30.1339 31.6896 30.1339V31.1339ZM32.7747 30.6845C33.0625 30.3967 33.2241 30.0064 33.2241 29.5994H32.2241C32.2241 29.7412 32.1678 29.8771 32.0676 29.9773L32.7747 30.6845ZM33.2241 29.5994V27.8753H32.2241V29.5994H33.2241ZM32.7241 28.3753L36.8621 28.3752L36.8621 27.3752L32.7241 27.3753L32.7241 28.3753Z" fill="white"/>
</svg>
