<svg width="54" height="53" viewBox="0 0 54 53" fill="none" xmlns="http://www.w3.org/2000/svg">
<path d="M5.21428 1C5.21428 0.723858 4.99042 0.5 4.71428 0.5C4.43814 0.5 4.21428 0.723858 4.21428 1H5.21428ZM4.21428 2.85455C4.21428 3.13069 4.43814 3.35455 4.71428 3.35455C4.99042 3.35455 5.21428 3.13069 5.21428 2.85455H4.21428ZM5.21428 6.56357C5.21428 6.28743 4.99042 6.06357 4.71428 6.06357C4.43814 6.06357 4.21428 6.28743 4.21428 6.56357H5.21428ZM4.21428 8.41812C4.21428 8.69426 4.43814 8.91812 4.71428 8.91812C4.99042 8.91812 5.21428 8.69426 5.21428 8.41812H4.21428ZM1 4.20919C0.723858 4.20919 0.5 4.43305 0.5 4.70919C0.5 4.98533 0.723858 5.20919 1 5.20919V4.20919ZM2.85714 5.20919C3.13329 5.20919 3.35714 4.98533 3.35714 4.70919C3.35714 4.43305 3.13329 4.20919 2.85714 4.20919V5.20919ZM6.57143 4.20919C6.29529 4.20919 6.07143 4.43305 6.07143 4.70919C6.07143 4.98533 6.29529 5.20919 6.57143 5.20919V4.20919ZM8.42857 5.20919C8.70471 5.20919 8.92857 4.98533 8.92857 4.70919C8.92857 4.43305 8.70471 4.20919 8.42857 4.20919V5.20919ZM48.8571 41.8C48.8571 41.5239 48.6333 41.3 48.3571 41.3C48.081 41.3 47.8571 41.5239 47.8571 41.8H48.8571ZM47.8571 43.6546C47.8571 43.9307 48.081 44.1546 48.3571 44.1546C48.6333 44.1546 48.8571 43.9307 48.8571 43.6546H47.8571ZM48.8571 47.3638C48.8571 47.0877 48.6333 46.8638 48.3571 46.8638C48.081 46.8638 47.8571 47.0877 47.8571 47.3638H48.8571ZM47.8571 49.2183C47.8571 49.4945 48.081 49.7183 48.3571 49.7183C48.6333 49.7183 48.8571 49.4945 48.8571 49.2183H47.8571ZM44.6428 45.0092C44.3667 45.0092 44.1428 45.2331 44.1428 45.5092C44.1428 45.7853 44.3667 46.0092 44.6428 46.0092V45.0092ZM46.5 46.0092C46.7761 46.0092 47 45.7853 47 45.5092C47 45.2331 46.7761 45.0092 46.5 45.0092V46.0092ZM50.2143 45.0092C49.9381 45.0092 49.7143 45.2331 49.7143 45.5092C49.7143 45.7853 49.9381 46.0092 50.2143 46.0092V45.0092ZM52.0714 46.0092C52.3476 46.0092 52.5714 45.7853 52.5714 45.5092C52.5714 45.2331 52.3476 45.0092 52.0714 45.0092V46.0092ZM4.39022 23.3474H4.89022H4.39022ZM3.39757 22.3561V21.8561V22.3561ZM42.4616 2.94729H42.9616H42.4616ZM41.469 1.95604V2.45604V1.95604ZM37.8188 40.9655H37.3188H37.8188ZM15.6983 14.9546C15.7885 14.6936 15.6499 14.4089 15.3889 14.3188C15.1279 14.2286 14.8432 14.3671 14.7531 14.6281L15.6983 14.9546ZM13.5701 19.5854L14.0427 19.7486L14.0427 19.7486L13.5701 19.5854ZM24.2486 36.2077L24.2161 36.7066L24.2172 36.7067L24.2486 36.2077ZM25.1391 36.2364L25.14 35.7364H25.1391V36.2364ZM30.2073 35.2498L30.3957 35.7131L30.4052 35.709L30.2073 35.2498ZM37.2254 20.4134L36.7434 20.5464L36.745 20.5521L37.2254 20.4134ZM34.4286 10.2728L34.9106 10.1398C34.8508 9.92297 34.6535 9.77276 34.4286 9.77276V10.2728ZM24.6944 9.77276C24.4182 9.77276 24.1944 9.99662 24.1944 10.2728C24.1944 10.5489 24.4182 10.7728 24.6944 10.7728V9.77276ZM27 24.1818L27.2517 24.6138C27.2563 24.6111 27.2609 24.6083 27.2655 24.6055L27 24.1818ZM25.6429 36.2364C25.6429 35.9603 25.419 35.7364 25.1429 35.7364C24.8667 35.7364 24.6429 35.9603 24.6429 36.2364H25.6429ZM24.6429 49.2183C24.6429 49.4944 24.8667 49.7183 25.1429 49.7183C25.419 49.7183 25.6429 49.4944 25.6429 49.2183H24.6429ZM31.6429 52V52.5C31.919 52.5 32.1429 52.2761 32.1429 52H31.6429ZM18.6429 52H18.1429C18.1429 52.2761 18.3667 52.5 18.6429 52.5V52ZM21.3041 7.32506L21.3275 6.8256C21.3186 6.82518 21.3096 6.82501 21.3007 6.82507L21.3041 7.32506ZM19.044 8.27459L18.6892 8.62693C18.7831 8.72144 18.9108 8.77459 19.044 8.77459C19.1772 8.77459 19.3049 8.72144 19.3988 8.62693L19.044 8.27459ZM16.7857 7.32506L16.7895 6.82507C16.7804 6.825 16.7712 6.82518 16.7621 6.82561L16.7857 7.32506ZM13.3946 11.0342H13.8946C13.8946 11.0269 13.8944 11.0196 13.8941 11.0123L13.3946 11.0342ZM19.0459 17.8311L18.7518 18.2354C18.9272 18.3631 19.165 18.3629 19.3404 18.2351L19.0459 17.8311ZM24.6962 11.0342L24.1967 11.0122C24.1964 11.0195 24.1962 11.0268 24.1962 11.0342H24.6962ZM4.21428 1V2.85455H5.21428V1H4.21428ZM4.21428 6.56357V8.41812H5.21428V6.56357H4.21428ZM1 5.20919H2.85714V4.20919H1V5.20919ZM6.57143 5.20919H8.42857V4.20919H6.57143V5.20919ZM47.8571 41.8V43.6546H48.8571V41.8H47.8571ZM47.8571 47.3638V49.2183H48.8571V47.3638H47.8571ZM44.6428 46.0092H46.5V45.0092H44.6428V46.0092ZM50.2143 46.0092H52.0714V45.0092H50.2143V46.0092ZM52.5 21.8637C52.5 22.8672 51.6852 23.6819 50.6786 23.6819V24.6819C52.2361 24.6819 53.5 23.4208 53.5 21.8637H52.5ZM50.6786 23.6819C49.672 23.6819 48.8571 22.8672 48.8571 21.8637H47.8571C47.8571 23.4208 49.121 24.6819 50.6786 24.6819V23.6819ZM48.8571 21.8637C48.8571 20.8602 49.672 20.0455 50.6786 20.0455V19.0455C49.121 19.0455 47.8571 20.3066 47.8571 21.8637H48.8571ZM50.6786 20.0455C51.6852 20.0455 52.5 20.8602 52.5 21.8637H53.5C53.5 20.3066 52.2361 19.0455 50.6786 19.0455V20.0455ZM3.89022 23.3474C3.89022 23.4444 3.86142 23.5393 3.80737 23.6201L4.63848 24.1762C4.80258 23.9309 4.89022 23.6425 4.89022 23.3474H3.89022ZM3.80737 23.6201C3.75332 23.7008 3.67643 23.7639 3.58633 23.8012L3.96856 24.7252C4.24122 24.6125 4.47439 24.4214 4.63848 24.1762L3.80737 23.6201ZM3.58633 23.8012C3.49622 23.8384 3.39704 23.8482 3.30133 23.8292L3.10651 24.81C3.39591 24.8675 3.6959 24.838 3.96856 24.7252L3.58633 23.8012ZM3.30133 23.8292C3.20564 23.8102 3.11783 23.7633 3.04898 23.6945L2.34236 24.4021C2.55116 24.6106 2.8171 24.7525 3.10651 24.81L3.30133 23.8292ZM3.04898 23.6945C2.98013 23.6258 2.93333 23.5383 2.91437 23.4431L1.93364 23.6385C1.99129 23.9279 2.13356 24.1936 2.34236 24.4021L3.04898 23.6945ZM2.91437 23.4431C2.89542 23.348 2.90514 23.2493 2.94234 23.1596L2.01865 22.7765C1.90558 23.0491 1.87599 23.3491 1.93364 23.6385L2.91437 23.4431ZM2.94234 23.1596C2.97954 23.07 3.04258 22.9932 3.12361 22.9391L2.56858 22.1073C2.32312 22.2711 2.13171 22.5039 2.01865 22.7765L2.94234 23.1596ZM3.12361 22.9391C3.20464 22.885 3.29998 22.8561 3.39757 22.8561V21.8561C3.10251 21.8561 2.81402 21.9435 2.56858 22.1073L3.12361 22.9391ZM3.39757 22.8561C3.52846 22.8561 3.65384 22.9081 3.74617 23.0003L4.45279 22.2927C4.17281 22.0131 3.79322 21.8561 3.39757 21.8561V22.8561ZM3.74617 23.0003C3.83848 23.0925 3.89022 23.2173 3.89022 23.3474H4.89022C4.89022 22.9517 4.73279 22.5723 4.45279 22.2927L3.74617 23.0003ZM41.9616 2.94729C41.9616 3.0443 41.9328 3.13918 41.8788 3.21995L42.7099 3.77606C42.874 3.5308 42.9616 3.24239 42.9616 2.94729H41.9616ZM41.8788 3.21995C41.8247 3.30073 41.7478 3.36379 41.6577 3.40106L42.04 4.32513C42.3126 4.21234 42.5458 4.0213 42.7099 3.77606L41.8788 3.21995ZM41.6577 3.40106C41.5676 3.43833 41.4684 3.44809 41.3727 3.42908L41.1779 4.40992C41.4673 4.46741 41.7673 4.43791 42.04 4.32513L41.6577 3.40106ZM41.3727 3.42908C41.2771 3.41007 41.1892 3.36317 41.1204 3.29442L40.4138 4.00202C40.6226 4.21052 40.8885 4.35243 41.1779 4.40992L41.3727 3.42908ZM41.1204 3.29442C41.0515 3.22566 41.0047 3.13816 40.9858 3.043L40.0051 3.23835C40.0627 3.52777 40.205 3.79351 40.4138 4.00202L41.1204 3.29442ZM40.9858 3.043C40.9668 2.94785 40.9766 2.84921 41.0138 2.75952L40.0901 2.37638C39.977 2.64896 39.9474 2.94893 40.0051 3.23835L40.9858 3.043ZM41.0138 2.75952C41.051 2.66984 41.114 2.59307 41.195 2.53901L40.64 1.70718C40.3945 1.87096 40.2031 2.10381 40.0901 2.37638L41.0138 2.75952ZM41.195 2.53901C41.2761 2.48494 41.3714 2.45604 41.469 2.45604V1.45604C41.1739 1.45604 40.8854 1.5434 40.64 1.70718L41.195 2.53901ZM41.469 2.45604C41.5338 2.45604 41.5979 2.46878 41.6577 2.49352L42.04 1.56946C41.8589 1.49457 41.6649 1.45604 41.469 1.45604V2.45604ZM41.6577 2.49352C41.7176 2.51827 41.7719 2.55452 41.8176 2.60017L42.5242 1.89257C42.3856 1.75412 42.221 1.64434 42.04 1.56946L41.6577 2.49352ZM41.8176 2.60017C41.8633 2.64581 41.8995 2.69997 41.9242 2.75952L42.8479 2.37638C42.7729 2.19541 42.6628 2.03102 42.5242 1.89257L41.8176 2.60017ZM41.9242 2.75952C41.9489 2.81908 41.9616 2.88288 41.9616 2.94729H42.9616C42.9616 2.75135 42.923 2.55736 42.8479 2.37638L41.9242 2.75952ZM37.3188 40.9655C37.3188 41.0625 37.29 41.1574 37.2359 41.2382L38.0671 41.7943C38.2312 41.549 38.3188 41.2606 38.3188 40.9655H37.3188ZM37.2359 41.2382C37.1819 41.319 37.105 41.382 37.0149 41.4193L37.3971 42.3434C37.6698 42.2306 37.903 42.0395 38.0671 41.7943L37.2359 41.2382ZM37.0149 41.4193C36.9248 41.4566 36.8256 41.4663 36.7299 41.4473L36.5351 42.4282C36.8245 42.4856 37.1245 42.4561 37.3971 42.3434L37.0149 41.4193ZM36.7299 41.4473C36.6342 41.4283 36.5464 41.3814 36.4775 41.3126L35.7709 42.0202C35.9797 42.2287 36.2457 42.3707 36.5351 42.4282L36.7299 41.4473ZM36.4775 41.3126C36.4087 41.2439 36.3619 41.1564 36.3429 41.0612L35.3622 41.2566C35.4199 41.546 35.5621 41.8117 35.7709 42.0202L36.4775 41.3126ZM36.3429 41.0612C36.324 40.9661 36.3337 40.8674 36.3709 40.7778L35.4472 40.3946C35.3342 40.6672 35.3046 40.9672 35.3622 41.2566L36.3429 41.0612ZM36.3709 40.7778C36.4081 40.6881 36.4712 40.6113 36.5522 40.5572L35.9971 39.7254C35.7517 39.8892 35.5603 40.122 35.4472 40.3946L36.3709 40.7778ZM36.5522 40.5572C36.6332 40.5032 36.7286 40.4743 36.8261 40.4743V39.4743C36.5311 39.4743 36.2426 39.5616 35.9971 39.7254L36.5522 40.5572ZM36.8261 40.4743C36.957 40.4743 37.0824 40.5262 37.1747 40.6184L37.8814 39.9108C37.6014 39.6312 37.2218 39.4743 36.8261 39.4743V40.4743ZM37.1747 40.6184C37.2671 40.7106 37.3188 40.8355 37.3188 40.9655H38.3188C38.3188 40.5698 38.1614 40.1904 37.8814 39.9108L37.1747 40.6184ZM14.7531 14.6281L13.0975 19.4222L14.0427 19.7486L15.6983 14.9546L14.7531 14.6281ZM13.0975 19.4221C10.3425 27.3983 15.7438 36.1542 24.2161 36.7066L24.2812 35.7088C16.5127 35.2022 11.4881 27.1448 14.0427 19.7486L13.0975 19.4221ZM24.2172 36.7067C24.5211 36.7259 24.8288 36.7364 25.1391 36.7364V35.7364C24.8515 35.7364 24.5649 35.7266 24.2801 35.7087L24.2172 36.7067ZM25.1383 36.7364C26.9407 36.7394 28.7263 36.3918 30.3956 35.713L30.0189 34.7867C28.4698 35.4166 26.8126 35.7392 25.14 35.7364L25.1383 36.7364ZM30.4052 35.709C33.2938 34.4638 35.6289 32.2095 36.9728 29.3684L36.0689 28.9407C34.829 31.5618 32.6747 33.6417 30.0093 34.7907L30.4052 35.709ZM36.9728 29.3684C38.3168 26.5272 38.5774 23.2941 37.7058 20.2748L36.745 20.5521C37.5491 23.3373 37.3087 26.3197 36.0689 28.9407L36.9728 29.3684ZM37.7074 20.2805L34.9106 10.1398L33.9466 10.4057L36.7434 20.5464L37.7074 20.2805ZM34.4286 9.77276H24.6944V10.7728H34.4286V9.77276ZM36.8877 19.1918C33.3098 20.2423 29.8935 21.7787 26.7345 23.7581L27.2655 24.6055C30.3469 22.6747 33.6794 21.176 37.1694 20.1513L36.8877 19.1918ZM26.7483 23.7498C20.6641 27.2939 16.0623 26.281 13.2011 24.7533L12.7301 25.6354C15.8711 27.3125 20.8429 28.347 27.2517 24.6138L26.7483 23.7498ZM24.6429 36.2364V49.2183H25.6429V36.2364H24.6429ZM31.6429 51.5H18.6429V52.5H31.6429V51.5ZM19.1429 52C19.1429 51.395 19.3835 50.8147 19.8121 50.3868L19.1055 49.6792C18.4892 50.2946 18.1429 51.1294 18.1429 52H19.1429ZM19.8121 50.3868C20.2407 49.9588 20.8221 49.7182 21.4286 49.7182V48.7182C20.5574 48.7182 19.7217 49.0638 19.1055 49.6792L19.8121 50.3868ZM21.4286 49.7182H28.8571V48.7182H21.4286V49.7182ZM28.8571 49.7182C29.4636 49.7182 30.045 49.9588 30.4736 50.3868L31.1802 49.6792C30.564 49.0638 29.7283 48.7182 28.8571 48.7182V49.7182ZM30.4736 50.3868C30.9022 50.8147 31.1429 51.3951 31.1429 52H32.1429C32.1429 51.1294 31.7965 50.2946 31.1802 49.6792L30.4736 50.3868ZM21.3007 6.82507C20.3194 6.83188 19.3805 7.22625 18.6892 7.92224L19.3988 8.62693C19.9038 8.11839 20.5901 7.83002 21.3076 7.82504L21.3007 6.82507ZM19.3988 7.92224C18.708 7.22677 17.77 6.83244 16.7895 6.82507L16.782 7.82504C17.4989 7.83043 18.1845 8.11877 18.6892 8.62693L19.3988 7.92224ZM16.7621 6.82561C15.6886 6.87634 14.6787 7.34986 13.9539 8.14269L14.6919 8.81746C15.2382 8.2199 15.9996 7.86276 16.8093 7.8245L16.7621 6.82561ZM13.9539 8.14269C13.229 8.93556 12.8482 9.98312 12.8951 11.056L13.8941 11.0123C13.8588 10.2042 14.1456 9.415 14.6919 8.81746L13.9539 8.14269ZM12.8946 11.0342C12.8946 11.6887 13.2029 12.3908 13.6149 13.0512C14.0356 13.7253 14.6062 14.4214 15.2185 15.0787C16.4431 16.3933 17.8804 17.6017 18.7518 18.2354L19.34 17.4267C18.5157 16.8272 17.1274 15.6608 15.9502 14.3971C15.3617 13.7653 14.8374 13.1214 14.4634 12.5218C14.0807 11.9086 13.8946 11.4033 13.8946 11.0342H12.8946ZM19.3404 18.2351C20.2114 17.6002 21.6484 16.392 22.8727 15.0777C23.4849 14.4206 24.0555 13.7247 24.476 13.0508C24.888 12.3906 25.1962 11.6887 25.1962 11.0342H24.1962C24.1962 11.4033 24.0101 11.9084 23.6276 12.5214C23.2536 13.1207 22.7295 13.7644 22.141 14.3961C20.9641 15.6594 19.5759 16.8259 18.7513 17.427L19.3404 18.2351ZM25.1957 11.0561C25.2429 9.98297 24.862 8.93505 24.1368 8.14207L23.3989 8.81694C23.9454 9.41452 24.2322 10.204 24.1967 11.0122L25.1957 11.0561ZM24.1368 8.14207C23.4116 7.34912 22.4014 6.87578 21.3275 6.8256L21.2808 7.82451C22.0907 7.86236 22.8524 8.21933 23.3989 8.81694L24.1368 8.14207Z" fill="white"/>
</svg>
