<svg width="62" height="62" viewBox="0 0 62 62" fill="none" xmlns="http://www.w3.org/2000/svg">
<path d="M14.5713 13.3409C14.7666 13.1457 14.7666 12.8291 14.5713 12.6338C14.3761 12.4386 14.0595 12.4386 13.8642 12.6338L14.5713 13.3409ZM10.6516 15.8465C10.4563 16.0417 10.4563 16.3583 10.6516 16.5536C10.8469 16.7488 11.1634 16.7488 11.3587 16.5536L10.6516 15.8465ZM11.3587 12.6338C11.1634 12.4386 10.8469 12.4386 10.6516 12.6338C10.4563 12.8291 10.4563 13.1457 10.6516 13.3409L11.3587 12.6338ZM13.8642 16.5536C14.0595 16.7488 14.3761 16.7488 14.5713 16.5536C14.7666 16.3583 14.7666 16.0417 14.5713 15.8465L13.8642 16.5536ZM17.8914 6.84983V6.34983V6.84983ZM53.9975 52.7639H53.4975H53.9975ZM52.7639 51.5303V51.0303V51.5303ZM28.2442 7.53863V7.03863C27.968 7.03863 27.7442 7.26249 27.7442 7.53863H28.2442ZM36.9623 7.53863H37.4623C37.4623 7.26249 37.2385 7.03863 36.9623 7.03863V7.53863ZM36.9623 10.8079V11.3079C37.2385 11.3079 37.4623 11.0841 37.4623 10.8079H36.9623ZM28.2442 10.8079H27.7442C27.7442 11.0841 27.968 11.3079 28.2442 11.3079V10.8079ZM49.1426 23.1757L48.8729 22.7548C48.6408 22.9035 48.5728 23.2119 48.7209 23.4443L49.1426 23.1757ZM43.1206 17.1537L42.852 17.5754C43.0845 17.7235 43.3929 17.6555 43.5416 17.4235L43.1206 17.1537ZM46.7702 19.0259C46.4941 19.0259 46.2702 19.2498 46.2702 19.5259C46.2702 19.8021 46.4941 20.0259 46.7702 20.0259V19.0259ZM18.4363 60.9371V61.4371V60.9371ZM4.2693 46.7701H3.7693H4.2693ZM33.1032 28.2441C33.1032 27.968 32.8794 27.7441 32.6032 27.7441C32.3271 27.7441 32.1032 27.968 32.1032 28.2441H33.1032ZM32.6032 33.693H32.1032C32.1032 33.8256 32.1559 33.9528 32.2497 34.0465L32.6032 33.693ZM34.4292 36.2261C34.6245 36.4213 34.9411 36.4213 35.1363 36.2261C35.3316 36.0308 35.3316 35.7142 35.1363 35.519L34.4292 36.2261ZM33.1032 42.4111C33.1032 42.135 32.8794 41.9111 32.6032 41.9111C32.3271 41.9111 32.1032 42.135 32.1032 42.4111H33.1032ZM32.1032 43.5009C32.1032 43.777 32.3271 44.0009 32.6032 44.0009C32.8794 44.0009 33.1032 43.777 33.1032 43.5009H32.1032ZM33.1032 23.8851C33.1032 23.6089 32.8794 23.3851 32.6032 23.3851C32.3271 23.3851 32.1032 23.6089 32.1032 23.8851H33.1032ZM32.1032 24.9748C32.1032 25.251 32.3271 25.4748 32.6032 25.4748C32.8794 25.4748 33.1032 25.251 33.1032 24.9748H32.1032ZM41.3214 33.193C41.0452 33.193 40.8214 33.4169 40.8214 33.693C40.8214 33.9692 41.0452 34.193 41.3214 34.193V33.193ZM42.4111 34.193C42.6873 34.193 42.9111 33.9692 42.9111 33.693C42.9111 33.4169 42.6873 33.193 42.4111 33.193V34.193ZM22.7954 33.193C22.5192 33.193 22.2954 33.4169 22.2954 33.693C22.2954 33.9692 22.5192 34.193 22.7954 34.193V33.193ZM23.8851 34.193C24.1613 34.193 24.3851 33.9692 24.3851 33.693C24.3851 33.4169 24.1613 33.193 23.8851 33.193V34.193ZM35.2828 10.8079C35.2828 10.5317 35.0589 10.3079 34.7828 10.3079C34.5066 10.3079 34.2828 10.5317 34.2828 10.8079H35.2828ZM34.2828 14.0772C34.2828 14.3533 34.5066 14.5772 34.7828 14.5772C35.0589 14.5772 35.2828 14.3533 35.2828 14.0772H34.2828ZM30.9237 10.8079C30.9237 10.5317 30.6999 10.3079 30.4237 10.3079C30.1476 10.3079 29.9237 10.5317 29.9237 10.8079H30.9237ZM29.9237 14.0772C29.9237 14.3533 30.1476 14.5772 30.4237 14.5772C30.6999 14.5772 30.9237 14.3533 30.9237 14.0772H29.9237ZM46.2702 3.17953C46.2702 4.10712 45.5182 4.85907 44.5907 4.85907V5.85907C46.0705 5.85907 47.2702 4.6594 47.2702 3.17953H46.2702ZM44.5907 4.85907C43.6631 4.85907 42.9111 4.10711 42.9111 3.17953H41.9111C41.9111 4.6594 43.1108 5.85907 44.5907 5.85907V4.85907ZM42.9111 3.17953C42.9111 2.25195 43.6631 1.5 44.5907 1.5V0.5C43.1108 0.5 41.9111 1.69967 41.9111 3.17953H42.9111ZM44.5907 1.5C45.5182 1.5 46.2702 2.25195 46.2702 3.17953H47.2702C47.2702 1.69967 46.0705 0.5 44.5907 0.5V1.5ZM13.8642 12.6338L10.6516 15.8465L11.3587 16.5536L14.5713 13.3409L13.8642 12.6338ZM10.6516 13.3409L13.8642 16.5536L14.5713 15.8465L11.3587 12.6338L10.6516 13.3409ZM18.625 8.08345C18.625 8.22855 18.582 8.37038 18.5014 8.49102L19.3328 9.04659C19.5233 8.7615 19.625 8.42632 19.625 8.08345H18.625ZM18.5014 8.49102C18.4207 8.61167 18.3062 8.7057 18.1721 8.76122L18.5548 9.6851C18.8716 9.55389 19.1423 9.33169 19.3328 9.04659L18.5014 8.49102ZM18.1721 8.76122C18.0381 8.81675 17.8906 8.83127 17.7483 8.80297L17.5532 9.78375C17.8895 9.85065 18.238 9.81631 18.5548 9.6851L18.1721 8.76122ZM17.7483 8.80297C17.6059 8.77466 17.4752 8.70479 17.3726 8.60219L16.6655 9.3093C16.908 9.55175 17.2169 9.71686 17.5532 9.78375L17.7483 8.80297ZM17.3726 8.60219C17.27 8.4996 17.2002 8.36888 17.1719 8.22657L16.1911 8.42166C16.258 8.75795 16.4231 9.06685 16.6655 9.3093L17.3726 8.60219ZM17.1719 8.22657C17.1436 8.08426 17.1581 7.93676 17.2136 7.80271L16.2897 7.42002C16.1585 7.7368 16.1242 8.08537 16.1911 8.42166L17.1719 8.22657ZM17.2136 7.80271C17.2691 7.66866 17.3632 7.55408 17.4838 7.47347L16.9282 6.642C16.6431 6.83249 16.4209 7.10324 16.2897 7.42002L17.2136 7.80271ZM17.4838 7.47347C17.6044 7.39286 17.7463 7.34983 17.8914 7.34983V6.34983C17.5485 6.34983 17.2133 6.45151 16.9282 6.642L17.4838 7.47347ZM17.8914 7.34983C18.0859 7.34983 18.2725 7.42712 18.4101 7.5647L19.1172 6.8576C18.7921 6.53248 18.3512 6.34983 17.8914 6.34983V7.34983ZM18.4101 7.5647C18.5477 7.70228 18.625 7.88888 18.625 8.08345H19.625C19.625 7.62367 19.4423 7.18271 19.1172 6.8576L18.4101 7.5647ZM53.4975 52.7639C53.4975 52.909 53.4545 53.0508 53.3739 53.1715L54.2054 53.727C54.3959 53.4419 54.4975 53.1068 54.4975 52.7639H53.4975ZM53.3739 53.1715C53.2933 53.2921 53.1787 53.3861 53.0447 53.4416L53.4273 54.3655C53.7441 54.2343 54.0149 54.0121 54.2054 53.727L53.3739 53.1715ZM53.0447 53.4416C52.9106 53.4972 52.7631 53.5117 52.6208 53.4834L52.4257 54.4642C52.762 54.5311 53.1106 54.4967 53.4273 54.3655L53.0447 53.4416ZM52.6208 53.4834C52.4785 53.4551 52.3478 53.3852 52.2452 53.2826L51.5381 53.9897C51.7805 54.2322 52.0894 54.3973 52.4257 54.4642L52.6208 53.4834ZM52.2452 53.2826C52.1426 53.18 52.0727 53.0493 52.0444 52.907L51.0636 53.1021C51.1305 53.4384 51.2956 53.7473 51.5381 53.9897L52.2452 53.2826ZM52.0444 52.907C52.0161 52.7647 52.0306 52.6172 52.0861 52.4831L51.1623 52.1005C51.0311 52.4172 50.9967 52.7658 51.0636 53.1021L52.0444 52.907ZM52.0861 52.4831C52.1417 52.3491 52.2357 52.2345 52.3563 52.1539L51.8008 51.3224C51.5157 51.5129 51.2935 51.7837 51.1623 52.1005L52.0861 52.4831ZM52.3563 52.1539C52.477 52.0733 52.6188 52.0303 52.7639 52.0303V51.0303C52.421 51.0303 52.0859 51.1319 51.8008 51.3224L52.3563 52.1539ZM52.7639 52.0303C52.9585 52.0303 53.1451 52.1076 53.2827 52.2451L53.9898 51.538C53.6646 51.2129 53.2237 51.0303 52.7639 51.0303V52.0303ZM53.2827 52.2451C53.4202 52.3827 53.4975 52.5693 53.4975 52.7639H54.4975C54.4975 52.3041 54.3149 51.8631 53.9898 51.538L53.2827 52.2451ZM28.2442 8.03863H36.9623V7.03863H28.2442V8.03863ZM36.4623 7.53863V10.8079H37.4623V7.53863H36.4623ZM36.9623 10.3079H28.2442V11.3079H36.9623V10.3079ZM28.7442 10.8079V7.53863H27.7442V10.8079H28.7442ZM49.4124 23.5967C50.0239 23.2048 50.5399 22.6808 50.9222 22.0633L50.0719 21.5369C49.7683 22.0274 49.3585 22.4435 48.8729 22.7548L49.4124 23.5967ZM50.9222 22.0633C51.3045 21.4457 51.5435 20.7503 51.6216 20.0282L50.6274 19.9206C50.5654 20.4941 50.3756 21.0464 50.0719 21.5369L50.9222 22.0633ZM51.6216 20.0282C51.6997 19.306 51.615 18.5756 51.3735 17.8905L50.4304 18.2229C50.6221 18.767 50.6895 19.3471 50.6274 19.9206L51.6216 20.0282ZM51.3735 17.8905C51.1321 17.2055 50.7402 16.5833 50.2266 16.0697L49.5195 16.7768C49.9274 17.1847 50.2387 17.6789 50.4304 18.2229L51.3735 17.8905ZM50.2266 16.0697C49.713 15.5561 49.0908 15.1642 48.4058 14.9228L48.0734 15.8659C48.6175 16.0576 49.1116 16.3689 49.5195 16.7768L50.2266 16.0697ZM48.4058 14.9228C47.7207 14.6814 46.9903 14.5966 46.2682 14.6747L46.3757 15.6689C46.9492 15.6069 47.5293 15.6742 48.0734 15.8659L48.4058 14.9228ZM46.2682 14.6747C45.546 14.7528 44.8506 14.9918 44.233 15.3741L44.7594 16.2244C45.2499 15.9208 45.8022 15.7309 46.3757 15.6689L46.2682 14.6747ZM44.233 15.3741C43.6155 15.7565 43.0915 16.2724 42.6996 16.8839L43.5416 17.4235C43.8528 16.9378 44.269 16.528 44.7594 16.2244L44.233 15.3741ZM43.3891 16.7319C39.2006 14.0646 34.1749 13.0373 29.2756 13.8469L29.4386 14.8335C34.0948 14.0641 38.8712 15.0405 42.852 17.5754L43.3891 16.7319ZM29.2756 13.8469C24.3763 14.6565 19.9482 17.246 16.8404 21.119L17.6204 21.7449C20.574 18.064 24.7824 15.603 29.4386 14.8335L29.2756 13.8469ZM16.8404 21.119C13.7326 24.992 12.1638 29.8759 12.4347 34.8342L13.4332 34.7797C13.1757 30.0673 14.6667 25.4257 17.6204 21.7449L16.8404 21.119ZM12.4347 34.8342C12.7057 39.7926 14.7973 44.4764 18.3086 47.9877L19.0157 47.2806C15.6786 43.9435 13.6907 39.492 13.4332 34.7797L12.4347 34.8342ZM18.3086 47.9877C21.8199 51.499 26.5037 53.5907 31.4621 53.8616L31.5166 52.8631C26.8043 52.6056 22.3528 50.6177 19.0157 47.2806L18.3086 47.9877ZM31.4621 53.8616C36.4204 54.1325 41.3043 52.5637 45.1773 49.4559L44.5514 48.676C40.8706 51.6296 36.229 53.1206 31.5166 52.8631L31.4621 53.8616ZM45.1773 49.4559C49.0503 46.3481 51.6398 41.9201 52.4494 37.0208L51.4628 36.8577C50.6934 41.514 48.2323 45.7223 44.5514 48.676L45.1773 49.4559ZM52.4494 37.0208C53.259 32.1215 52.2317 27.0957 49.5644 22.9072L48.7209 23.4443C51.2558 27.4251 52.2322 32.2015 51.4628 36.8577L52.4494 37.0208ZM45.1805 33.693C45.1805 40.6392 39.5495 46.2702 32.6033 46.2702V47.2702C40.1017 47.2702 46.1805 41.1915 46.1805 33.693H45.1805ZM32.6033 46.2702C25.6571 46.2702 20.0261 40.6392 20.0261 33.693H19.0261C19.0261 41.1915 25.1048 47.2702 32.6033 47.2702V46.2702ZM20.0261 33.693C20.0261 26.7468 25.6571 21.1158 32.6033 21.1158V20.1158C25.1048 20.1158 19.0261 26.1945 19.0261 33.693H20.0261ZM32.6033 21.1158C39.5495 21.1158 45.1805 26.7468 45.1805 33.693H46.1805C46.1805 26.1945 40.1017 20.1158 32.6033 20.1158V21.1158ZM46.7702 20.0259C48.565 20.0259 50.3422 20.3795 52.0003 21.0663L52.383 20.1424C50.6035 19.4053 48.6963 19.0259 46.7702 19.0259V20.0259ZM52.0003 21.0663C53.6585 21.7531 55.1651 22.7598 56.4342 24.0289L57.1413 23.3218C55.7794 21.9598 54.1625 20.8795 52.383 20.1424L52.0003 21.0663ZM56.4342 24.0289C57.7033 25.298 58.71 26.8046 59.3968 28.4628L60.3207 28.0801C59.5836 26.3006 58.5033 24.6838 57.1413 23.3218L56.4342 24.0289ZM59.3968 28.4628C60.0837 30.1209 60.4372 31.8981 60.4372 33.6929H61.4372C61.4372 31.7668 61.0578 29.8596 60.3207 28.0801L59.3968 28.4628ZM60.4372 33.6929V46.7701H61.4372V33.6929H60.4372ZM60.4372 46.7701C60.4372 48.5649 60.0837 50.3421 59.3968 52.0002L60.3207 52.3829C61.0578 50.6034 61.4372 48.6962 61.4372 46.7701H60.4372ZM59.3968 52.0002C58.71 53.6584 57.7033 55.165 56.4342 56.4341L57.1413 57.1412C58.5033 55.7793 59.5836 54.1624 60.3207 52.3829L59.3968 52.0002ZM56.4342 56.4341C55.1651 57.7032 53.6585 58.7099 52.0003 59.3967L52.383 60.3206C54.1625 59.5835 55.7794 58.5032 57.1413 57.1412L56.4342 56.4341ZM52.0003 59.3967C50.3422 60.0836 48.565 60.4371 46.7702 60.4371V61.4371C48.6963 61.4371 50.6035 61.0577 52.383 60.3206L52.0003 59.3967ZM46.7702 60.4371H18.4363V61.4371H46.7702V60.4371ZM18.4363 60.4371C14.8116 60.4371 11.3353 58.9972 8.77226 56.4341L8.06515 57.1412C10.8157 59.8918 14.5463 61.4371 18.4363 61.4371V60.4371ZM8.77226 56.4341C6.2092 53.8711 4.7693 50.3948 4.7693 46.7701H3.7693C3.7693 50.66 5.31456 54.3906 8.06515 57.1412L8.77226 56.4341ZM4.7693 46.7701V8.62828H3.7693V46.7701H4.7693ZM32.1032 28.2441V33.693H33.1032V28.2441H32.1032ZM32.2497 34.0465L34.4292 36.2261L35.1363 35.519L32.9568 33.3394L32.2497 34.0465ZM32.1032 42.4111V43.5009H33.1032V42.4111H32.1032ZM32.1032 23.8851V24.9748H33.1032V23.8851H32.1032ZM41.3214 34.193H42.4111V33.193H41.3214V34.193ZM22.7954 34.193H23.8851V33.193H22.7954V34.193ZM7.0386 5.3591C7.0386 6.88852 5.79876 8.12828 4.2693 8.12828V9.12828C6.351 9.12828 8.0386 7.44086 8.0386 5.3591H7.0386ZM4.2693 8.12828C2.73983 8.12828 1.5 6.88852 1.5 5.3591H0.5C0.5 7.44086 2.18759 9.12828 4.2693 9.12828V8.12828ZM1.5 5.3591C1.5 3.82966 2.73986 2.5898 4.2693 2.5898V1.5898C2.18757 1.5898 0.5 3.27738 0.5 5.3591H1.5ZM4.2693 2.5898C5.79874 2.5898 7.0386 3.82966 7.0386 5.3591H8.0386C8.0386 3.27738 6.35103 1.5898 4.2693 1.5898V2.5898ZM34.2828 10.8079V14.0772H35.2828V10.8079H34.2828ZM29.9237 10.8079V14.0772H30.9237V10.8079H29.9237Z" fill="white"/>
</svg>
