<svg width="48" height="46" viewBox="0 0 48 46" fill="none" xmlns="http://www.w3.org/2000/svg">
<path d="M37.3084 22.2906C37.3304 22.5658 37.5714 22.7711 37.8467 22.7491C38.1219 22.7271 38.3272 22.4861 38.3052 22.2108L37.3084 22.2906ZM36.8871 4.48732C36.8651 4.21206 36.6241 4.00677 36.3488 4.02879C36.0736 4.05082 35.8683 4.29182 35.8903 4.56708L36.8871 4.48732ZM12.1793 4.48711C12.2014 4.21184 11.9961 3.97085 11.7208 3.94882C11.4455 3.9268 11.2046 4.13209 11.1825 4.40735L12.1793 4.48711ZM9.75047 22.3069C9.72845 22.5821 9.93374 22.8231 10.209 22.8452C10.4843 22.8672 10.7253 22.6619 10.7473 22.3866L9.75047 22.3069ZM35.3481 21.4726C35.4023 21.7434 35.6657 21.919 35.9365 21.8649C36.2073 21.8107 36.3829 21.5473 36.3287 21.2765L35.3481 21.4726ZM34.9073 16.7189L34.417 16.8168L34.417 16.817L34.9073 16.7189ZM33.7936 15.8059V16.3059H33.7938L33.7936 15.8059ZM14.2695 15.8059L14.2693 16.3059H14.2695V15.8059ZM13.1558 16.7189L13.6461 16.817L13.6461 16.8168L13.1558 16.7189ZM11.7607 21.1449C11.7065 21.4157 11.8821 21.6791 12.1529 21.7333C12.4237 21.7874 12.6871 21.6118 12.7413 21.341L11.7607 21.1449ZM33.0796 35.8696C32.8035 35.8696 32.5796 36.0935 32.5796 36.3696C32.5796 36.6458 32.8035 36.8696 33.0796 36.8696V35.8696ZM43.7728 36.3696V36.8696C44.0489 36.8696 44.2728 36.6458 44.2728 36.3696H43.7728ZM43.7728 25.8821H44.2728V25.8819L43.7728 25.8821ZM41.922 24.0314L41.9222 23.5314H41.922V24.0314ZM38.8374 23.5314C38.5613 23.5314 38.3374 23.7552 38.3374 24.0314C38.3374 24.3075 38.5613 24.5314 38.8374 24.5314V23.5314ZM9.09485 24.5314C9.37099 24.5314 9.59485 24.3075 9.59485 24.0314C9.59485 23.7552 9.37099 23.5314 9.09485 23.5314V24.5314ZM6.14107 24.0314V23.5314H6.14085L6.14107 24.0314ZM4.29033 25.8821L3.79033 25.8819V25.8821H4.29033ZM4.29033 36.3696H3.79033C3.79033 36.6458 4.01419 36.8696 4.29033 36.8696V36.3696ZM14.9835 36.8696C15.2596 36.8696 15.4835 36.6458 15.4835 36.3696C15.4835 36.0935 15.2596 35.8696 14.9835 35.8696V36.8696ZM32.0374 24.5316C32.3136 24.5316 32.5374 24.3077 32.5374 24.0316C32.5374 23.7554 32.3136 23.5316 32.0374 23.5316V24.5316ZM30.5568 24.0316L30.0607 24.0937C30.092 24.3439 30.3047 24.5316 30.5568 24.5316V24.0316ZM24.0332 18.2742V17.7742V18.2742ZM17.5095 24.0316V24.5316C17.7616 24.5316 17.9743 24.3439 18.0057 24.0937L17.5095 24.0316ZM15.899 23.5316C15.6228 23.5316 15.399 23.7554 15.399 24.0316C15.399 24.3077 15.6228 24.5316 15.899 24.5316V23.5316ZM4.07564 33.5794C4.35178 33.5794 4.57564 33.3556 4.57564 33.0794C4.57564 32.8033 4.35178 32.5794 4.07564 32.5794V33.5794ZM1.00012 33.0794V32.5794C0.72398 32.5794 0.500122 32.8033 0.500122 33.0794H1.00012ZM1.00012 37.1922H0.500122H1.00012ZM44.5953 39.6598V40.1598V39.6598ZM47.063 33.0794H47.563C47.563 32.8033 47.3391 32.5794 47.063 32.5794V33.0794ZM44.184 32.5794C43.9079 32.5794 43.684 32.8033 43.684 33.0794C43.684 33.3556 43.9079 33.5794 44.184 33.5794V32.5794ZM12.1933 39.9633C12.1933 39.6872 11.9694 39.4633 11.6933 39.4633C11.4171 39.4633 11.1933 39.6872 11.1933 39.9633H12.1933ZM9.62292 45.4177V45.9177V45.4177ZM8.00578 45.4177V45.9177V45.4177ZM6.43543 40.0793C6.43543 39.8032 6.21157 39.5793 5.93543 39.5793C5.65928 39.5793 5.43543 39.8032 5.43543 40.0793H6.43543ZM42.6276 39.9633C42.6276 39.6872 42.4038 39.4633 42.1276 39.4633C41.8515 39.4633 41.6276 39.6872 41.6276 39.9633H42.6276ZM42.1276 43.3473H42.6276H42.1276ZM40.0573 45.4177V45.9177V45.4177ZM38.4401 45.4177V45.9177V45.4177ZM36.3698 43.3473H35.8698H36.3698ZM36.8698 40.1575C36.8698 39.8813 36.6459 39.6575 36.3698 39.6575C36.0936 39.6575 35.8698 39.8813 35.8698 40.1575H36.8698ZM27.3217 36.3697V36.8697C27.5979 36.8697 27.8217 36.6458 27.8217 36.3697H27.3217ZM20.7413 36.3697H20.2413C20.2413 36.6458 20.4652 36.8697 20.7413 36.8697V36.3697ZM31.9345 39.9633C31.9345 39.6872 31.7106 39.4633 31.4345 39.4633C31.1584 39.4633 30.9345 39.6872 30.9345 39.9633H31.9345ZM31.4345 42.95V43.45C31.7106 43.45 31.9345 43.2262 31.9345 42.95H31.4345ZM16.6286 42.95H16.1286C16.1286 43.2262 16.3524 43.45 16.6286 43.45V42.95ZM17.1286 39.9633C17.1286 39.6872 16.9047 39.4633 16.6286 39.4633C16.3524 39.4633 16.1286 39.6872 16.1286 39.9633H17.1286ZM14.1609 1V0.5V1ZM33.9021 1V0.5V1ZM37.1923 4.2902V4.7902C37.4685 4.7902 37.6923 4.56634 37.6923 4.2902H37.1923ZM10.8707 4.2902H10.3707C10.3707 4.56634 10.5946 4.7902 10.8707 4.7902V4.2902ZM17.8047 7.11143C17.9999 6.91616 17.9999 6.59958 17.8047 6.40432C17.6094 6.20906 17.2928 6.20906 17.0976 6.40432L17.8047 7.11143ZM14.2187 9.28325C14.0234 9.47851 14.0234 9.79509 14.2187 9.99035C14.4139 10.1856 14.7305 10.1856 14.9258 9.99035L14.2187 9.28325ZM21.0949 7.11143C21.2901 6.91616 21.2901 6.59958 21.0949 6.40432C20.8996 6.20906 20.583 6.20906 20.3878 6.40432L21.0949 7.11143ZM14.6299 12.1622C14.4347 12.3574 14.4347 12.674 14.6299 12.8693C14.8252 13.0645 15.1418 13.0645 15.337 12.8693L14.6299 12.1622ZM38.4839 22.8553C38.2886 23.0505 38.2886 23.3671 38.4839 23.5624C38.6791 23.7576 38.9957 23.7576 39.191 23.5624L38.4839 22.8553ZM43.3037 19.4496C43.499 19.2544 43.499 18.9378 43.3037 18.7425C43.1085 18.5473 42.7919 18.5473 42.5966 18.7425L43.3037 19.4496ZM8.87207 23.5624C9.06733 23.7576 9.38391 23.7576 9.57918 23.5624C9.77444 23.3671 9.77444 23.0505 9.57918 22.8553L8.87207 23.5624ZM5.46642 18.7425C5.27116 18.5473 4.95458 18.5473 4.75932 18.7425C4.56405 18.9378 4.56405 19.2544 4.75932 19.4496L5.46642 18.7425ZM44.6152 7.16908C44.6152 7.40718 44.4221 7.6002 44.184 7.6002V8.6002C44.9744 8.6002 45.6152 7.95947 45.6152 7.16908H44.6152ZM44.184 7.6002C43.9459 7.6002 43.7529 7.40718 43.7529 7.16908H42.7529C42.7529 7.95946 43.3936 8.6002 44.184 8.6002V7.6002ZM43.7529 7.16908C43.7529 6.93097 43.9459 6.73795 44.184 6.73795V5.73795C43.3936 5.73795 42.7529 6.37869 42.7529 7.16908H43.7529ZM44.184 6.73795C44.4221 6.73795 44.6152 6.93097 44.6152 7.16908H45.6152C45.6152 6.37868 44.9744 5.73795 44.184 5.73795V6.73795ZM38.3052 22.2108L36.8871 4.48732L35.8903 4.56708L37.3084 22.2906L38.3052 22.2108ZM11.1825 4.40735L9.75047 22.3069L10.7473 22.3866L12.1793 4.48711L11.1825 4.40735ZM36.3287 21.2765L35.3976 16.6209L34.417 16.817L35.3481 21.4726L36.3287 21.2765ZM35.3976 16.6211C35.3236 16.2502 35.1233 15.9163 34.8308 15.6765L34.1968 16.4499C34.3104 16.543 34.3882 16.6727 34.417 16.8168L35.3976 16.6211ZM34.8308 15.6765C34.5382 15.4367 34.1716 15.3057 33.7933 15.3059L33.7938 16.3059C33.9407 16.3058 34.0831 16.3567 34.1968 16.4499L34.8308 15.6765ZM33.7936 15.3059H14.2695V16.3059H33.7936V15.3059ZM14.2697 15.3059C13.8915 15.3057 13.5248 15.4367 13.2323 15.6765L13.8663 16.4499C13.9799 16.3567 14.1223 16.3058 14.2693 16.3059L14.2697 15.3059ZM13.2323 15.6765C12.9398 15.9163 12.7394 16.2502 12.6654 16.6211L13.6461 16.8168C13.6749 16.6727 13.7527 16.543 13.8663 16.4499L13.2323 15.6765ZM12.6655 16.6209L11.7607 21.1449L12.7413 21.341L13.6461 16.817L12.6655 16.6209ZM33.0796 36.8696H43.7728V35.8696H33.0796V36.8696ZM44.2728 36.3696V25.8821H43.2728V36.3696H44.2728ZM44.2728 25.8819C44.2725 25.2586 44.0247 24.6609 43.584 24.2201L42.8769 24.9272C43.1302 25.1806 43.2726 25.5241 43.2728 25.8823L44.2728 25.8819ZM43.584 24.2201C43.1432 23.7794 42.5455 23.5317 41.9222 23.5314L41.9218 24.5314C42.28 24.5315 42.6236 24.6739 42.8769 24.9272L43.584 24.2201ZM41.922 23.5314H38.8374V24.5314H41.922V23.5314ZM9.09485 23.5314H6.14107V24.5314H9.09485V23.5314ZM6.14085 23.5314C5.51754 23.5317 4.91983 23.7794 4.47909 24.2201L5.18619 24.9272C5.43951 24.6739 5.78304 24.5315 6.14129 24.5314L6.14085 23.5314ZM4.47909 24.2201C4.03834 24.6609 3.79061 25.2586 3.79033 25.8819L4.79033 25.8823C4.79049 25.5241 4.93287 25.1806 5.18619 24.9272L4.47909 24.2201ZM3.79033 25.8821V36.3696H4.79033V25.8821H3.79033ZM4.29033 36.8696H14.9835V35.8696H4.29033V36.8696ZM32.0374 23.5316H30.5568V24.5316H32.0374V23.5316ZM31.0529 23.9694C30.8386 22.2588 30.0071 20.6853 28.7145 19.5445L28.0528 20.2943C29.1627 21.2738 29.8767 22.6249 30.0607 24.0937L31.0529 23.9694ZM28.7145 19.5445C27.4219 18.4037 25.7572 17.7742 24.0332 17.7742V18.7742C25.5135 18.7742 26.9429 19.3148 28.0528 20.2943L28.7145 19.5445ZM24.0332 17.7742C22.3092 17.7742 20.6445 18.4037 19.3519 19.5445L20.0136 20.2943C21.1235 19.3148 22.5529 18.7742 24.0332 18.7742V17.7742ZM19.3519 19.5445C18.0593 20.6853 17.2277 22.2588 17.0134 23.9694L18.0057 24.0937C18.1897 22.6249 18.9037 21.2738 20.0136 20.2943L19.3519 19.5445ZM17.5095 23.5316H15.899V24.5316H17.5095V23.5316ZM15.306 24.854C15.306 26.395 14.0568 27.6442 12.5158 27.6442V28.6442C14.6091 28.6442 16.306 26.9473 16.306 24.854H15.306ZM12.5158 27.6442C10.9748 27.6442 9.72563 26.395 9.72563 24.854H8.72563C8.72563 26.9473 10.4226 28.6442 12.5158 28.6442V27.6442ZM9.72563 24.854C9.72563 23.313 10.9748 22.0638 12.5158 22.0638V21.0638C10.4226 21.0638 8.72563 22.7607 8.72563 24.854H9.72563ZM12.5158 22.0638C14.0568 22.0638 15.306 23.313 15.306 24.854H16.306C16.306 22.7607 14.6091 21.0638 12.5158 21.0638V22.0638ZM38.3374 24.854C38.3374 26.395 37.0882 27.6442 35.5472 27.6442V28.6442C37.6405 28.6442 39.3374 26.9473 39.3374 24.854H38.3374ZM35.5472 27.6442C34.0063 27.6442 32.757 26.395 32.757 24.854H31.757C31.757 26.9473 33.454 28.6442 35.5472 28.6442V27.6442ZM32.757 24.854C32.757 23.313 34.0063 22.0638 35.5472 22.0638V21.0638C33.454 21.0638 31.757 22.7607 31.757 24.854H32.757ZM35.5472 22.0638C37.0882 22.0638 38.3374 23.313 38.3374 24.854H39.3374C39.3374 22.7607 37.6405 21.0638 35.5472 21.0638V22.0638ZM4.07564 32.5794H1.00012V33.5794H4.07564V32.5794ZM0.500122 33.0794V37.1922H1.50012V33.0794H0.500122ZM0.500122 37.1922C0.500122 37.9792 0.812785 38.7341 1.36933 39.2906L2.07643 38.5835C1.70743 38.2145 1.50012 37.714 1.50012 37.1922H0.500122ZM1.36933 39.2906C1.92587 39.8472 2.6807 40.1598 3.46777 40.1598V39.1598C2.94592 39.1598 2.44544 38.9525 2.07643 38.5835L1.36933 39.2906ZM3.46777 40.1598H44.5953V39.1598H3.46777V40.1598ZM44.5953 40.1598C45.3824 40.1598 46.1372 39.8472 46.6937 39.2906L45.9866 38.5835C45.6176 38.9525 45.1172 39.1598 44.5953 39.1598V40.1598ZM46.6937 39.2906C47.2503 38.7341 47.563 37.9792 47.563 37.1922H46.563C46.563 37.714 46.3556 38.2145 45.9866 38.5835L46.6937 39.2906ZM47.563 37.1922V33.0794H46.563V37.1922H47.563ZM47.063 32.5794H44.184V33.5794H47.063V32.5794ZM11.1933 39.9633V43.3473H12.1933V39.9633H11.1933ZM11.1933 43.3473C11.1933 43.7638 11.0278 44.1632 10.7333 44.4577L11.4404 45.1648C11.9225 44.6828 12.1933 44.029 12.1933 43.3473H11.1933ZM10.7333 44.4577C10.4388 44.7522 10.0394 44.9177 9.62292 44.9177V45.9177C10.3046 45.9177 10.9584 45.6469 11.4404 45.1648L10.7333 44.4577ZM9.62292 44.9177H8.00578V45.9177H9.62292V44.9177ZM8.00578 44.9177C7.5893 44.9177 7.18987 44.7522 6.89537 44.4577L6.18827 45.1648C6.6703 45.6469 7.32408 45.9177 8.00578 45.9177V44.9177ZM6.89537 44.4577C6.60087 44.1632 6.43543 43.7638 6.43543 43.3473H5.43543C5.43543 44.029 5.70623 44.6828 6.18827 45.1648L6.89537 44.4577ZM6.43543 43.3473V40.0793H5.43543V43.3473H6.43543ZM41.6276 39.9633V43.3473H42.6276V39.9633H41.6276ZM41.6276 43.3473C41.6276 43.7638 41.4622 44.1632 41.1677 44.4577L41.8748 45.1648C42.3568 44.6828 42.6276 44.029 42.6276 43.3473H41.6276ZM41.1677 44.4577C40.8732 44.7522 40.4738 44.9177 40.0573 44.9177V45.9177C40.739 45.9177 41.3928 45.6469 41.8748 45.1648L41.1677 44.4577ZM40.0573 44.9177H38.4401V45.9177H40.0573V44.9177ZM38.4401 44.9177C38.0237 44.9177 37.6242 44.7522 37.3297 44.4577L36.6226 45.1648C37.1047 45.6469 37.7584 45.9177 38.4401 45.9177V44.9177ZM37.3297 44.4577C37.0352 44.1632 36.8698 43.7638 36.8698 43.3473H35.8698C35.8698 44.029 36.1406 44.6828 36.6226 45.1648L37.3297 44.4577ZM36.8698 43.3473V40.1575H35.8698V43.3473H36.8698ZM24.0315 26.1765C24.7715 26.1765 25.4812 26.4705 26.0045 26.9937L26.7116 26.2866C26.0008 25.5758 25.0368 25.1765 24.0315 25.1765V26.1765ZM26.0045 26.9937C26.5278 27.517 26.8217 28.2267 26.8217 28.9667H27.8217C27.8217 27.9615 27.4224 26.9974 26.7116 26.2866L26.0045 26.9937ZM26.8217 28.9667V36.3697H27.8217V28.9667H26.8217ZM27.3217 35.8697H20.7413V36.8697H27.3217V35.8697ZM21.2413 36.3697V28.9667H20.2413V36.3697H21.2413ZM21.2413 28.9667C21.2413 28.2267 21.5353 27.517 22.0586 26.9937L21.3515 26.2866C20.6407 26.9974 20.2413 27.9615 20.2413 28.9667H21.2413ZM22.0586 26.9937C22.5818 26.4705 23.2915 26.1765 24.0315 26.1765V25.1765C23.0263 25.1765 22.0623 25.5758 21.3515 26.2866L22.0586 26.9937ZM30.9345 39.9633V42.95H31.9345V39.9633H30.9345ZM31.4345 42.45H16.6286V43.45H31.4345V42.45ZM17.1286 42.95V39.9633H16.1286V42.95H17.1286ZM19.4188 35.5471C19.4188 36.6338 18.5378 37.5147 17.4511 37.5147V38.5147C19.0901 38.5147 20.4188 37.1861 20.4188 35.5471H19.4188ZM17.4511 37.5147C16.3644 37.5147 15.4835 36.6338 15.4835 35.5471H14.4835C14.4835 37.1861 15.8121 38.5147 17.4511 38.5147V37.5147ZM15.4835 35.5471C15.4835 34.4604 16.3644 33.5794 17.4511 33.5794V32.5794C15.8121 32.5794 14.4835 33.9081 14.4835 35.5471H15.4835ZM17.4511 33.5794C18.5378 33.5794 19.4188 34.4604 19.4188 35.5471H20.4188C20.4188 33.9081 19.0901 32.5794 17.4511 32.5794V33.5794ZM32.5796 35.5471C32.5796 36.6338 31.6986 37.5147 30.6119 37.5147V38.5147C32.2509 38.5147 33.5796 37.1861 33.5796 35.5471H32.5796ZM30.6119 37.5147C29.5252 37.5147 28.6443 36.6338 28.6443 35.5471H27.6443C27.6443 37.1861 28.973 38.5147 30.6119 38.5147V37.5147ZM28.6443 35.5471C28.6443 34.4604 29.5252 33.5794 30.6119 33.5794V32.5794C28.9729 32.5794 27.6443 33.9081 27.6443 35.5471H28.6443ZM30.6119 33.5794C31.6986 33.5794 32.5796 34.4604 32.5796 35.5471H33.5796C33.5796 33.9081 32.2509 32.5794 30.6119 32.5794V33.5794ZM14.1609 1.5H33.9021V0.5H14.1609V1.5ZM33.9021 1.5C34.6422 1.5 35.3518 1.79397 35.8751 2.31723L36.5822 1.61012C35.8714 0.899324 34.9074 0.5 33.9021 0.5V1.5ZM35.8751 2.31723C36.3984 2.8405 36.6923 3.5502 36.6923 4.2902H37.6923C37.6923 3.28498 37.293 2.32092 36.5822 1.61012L35.8751 2.31723ZM37.1923 3.7902H10.8707V4.7902H37.1923V3.7902ZM11.3707 4.2902C11.3707 3.55019 11.6647 2.8405 12.188 2.31723L11.4809 1.61012C10.7701 2.32092 10.3707 3.28498 10.3707 4.2902H11.3707ZM12.188 2.31723C12.7112 1.79397 13.4209 1.5 14.1609 1.5V0.5C13.1557 0.5 12.1917 0.899324 11.4809 1.61012L12.188 2.31723ZM17.0976 6.40432L14.2187 9.28325L14.9258 9.99035L17.8047 7.11143L17.0976 6.40432ZM20.3878 6.40432L14.6299 12.1622L15.337 12.8693L21.0949 7.11143L20.3878 6.40432ZM39.191 23.5624L43.3037 19.4496L42.5966 18.7425L38.4839 22.8553L39.191 23.5624ZM45.7404 17.451C45.7404 18.0834 45.2277 18.5961 44.5953 18.5961V19.5961C45.78 19.5961 46.7404 18.6357 46.7404 17.451H45.7404ZM44.5953 18.5961C43.9629 18.5961 43.4502 18.0834 43.4502 17.451H42.4502C42.4502 18.6357 43.4106 19.5961 44.5953 19.5961V18.5961ZM43.4502 17.451C43.4502 16.8186 43.9629 16.3059 44.5953 16.3059V15.3059C43.4106 15.3059 42.4502 16.2663 42.4502 17.451H43.4502ZM44.5953 16.3059C45.2277 16.3059 45.7404 16.8186 45.7404 17.451H46.7404C46.7404 16.2663 45.78 15.3059 44.5953 15.3059V16.3059ZM9.57918 22.8553L5.46642 18.7425L4.75932 19.4496L8.87207 23.5624L9.57918 22.8553ZM4.61288 17.451C4.61288 18.0834 4.1002 18.5961 3.46778 18.5961V19.5961C4.65249 19.5961 5.61288 18.6357 5.61288 17.451H4.61288ZM3.46778 18.5961C2.83536 18.5961 2.32268 18.0834 2.32268 17.451H1.32268C1.32268 18.6357 2.28307 19.5961 3.46778 19.5961V18.5961ZM2.32268 17.451C2.32268 16.8186 2.83536 16.3059 3.46778 16.3059V15.3059C2.28307 15.3059 1.32268 16.2663 1.32268 17.451H2.32268ZM3.46778 16.3059C4.1002 16.3059 4.61288 16.8186 4.61288 17.451H5.61288C5.61288 16.2663 4.65248 15.3059 3.46778 15.3059V16.3059Z" fill="white"/>
</svg>
